999
dxfrw 0.6.3
  0
SECTION
  2
HEADER
  9
$ACADVER
  1
AC1021
  9
$DWGCODEPAGE
  3
ANSI_1252
  9
$INSBASE
 10
0
 20
0
 30
0
  9
$EXTMIN
 10
-1.565695561868079
 20
-156.970105257426
 30
0
  9
$EXTMAX
 10
350.4343045000011
 20
-25.97060493306192
 30
0
  9
$LIMMIN
 10
0
 20
0
  9
$LIMMAX
 10
420
 20
297
  9
$ORTHOMODE
 70
    0
  9
$REGENMODE
 70
    1
  9
$FILLMODE
 70
    1
  9
$QTEXTMODE
 70
    0
  9
$MIRRTEXT
 70
    0
  9
$LTSCALE
 40
1
  9
$ATTMODE
 70
    0
  9
$TEXTSIZE
 40
2.5
  9
$TRACEWID
 40
15.68
  9
$TEXTSTYLE
  7
STANDARD
  9
$CLAYER
  8
0
  9
$CELTYPE
  6
BYLAYER
  9
$CECOLOR
 62
  256
  9
$CELTSCALE
 40
1
  9
$DISPSILH
 70
    0
  9
$DIMSCALE
 40
2.5
  9
$DIMASZ
 40
2.5
  9
$DIMEXO
 40
0.625
  9
$DIMDLI
 40
3.75
  9
$DIMRND
 40
0
  9
$DIMDLE
 40
0
  9
$DIMEXE
 40
1.25
  9
$DIMTP
 40
0
  9
$DIMTM
 40
0
  9
$DIMTXT
 40
2.5
  9
$DIMCEN
 40
2.5
  9
$DIMTSZ
 40
0
  9
$DIMTOL
 70
    0
  9
$DIMLIM
 70
    0
  9
$DIMTIH
 70
    0
  9
$DIMTOH
 70
    0
  9
$DIMSE1
 70
    0
  9
$DIMSE2
 70
    0
  9
$DIMTAD
 70
    1
  9
$DIMZIN
 70
    8
  9
$DIMBLK
  1

  9
$DIMASO
 70
    1
  9
$DIMSHO
 70
    1
  9
$DIMPOST
  1

  9
$DIMAPOST
  1

  9
$DIMALT
 70
    0
  9
$DIMALTD
 70
    3
  9
$DIMALTF
 40
0.03937
  9
$DIMLFAC
 40
1
  9
$DIMTOFL
 70
    1
  9
$DIMTVP
 40
0
  9
$DIMTIX
 70
    0
  9
$DIMSOXD
 70
    0
  9
$DIMSAH
 70
    0
  9
$DIMBLK1
  1

  9
$DIMBLK2
  1

  9
$DIMSTYLE
  2
Standard
  9
$DIMCLRD
 70
    0
  9
$DIMCLRE
 70
    0
  9
$DIMCLRT
 70
    0
  9
$DIMTFAC
 40
1
  9
$DIMGAP
 40
0.625
  9
$DIMJUST
 70
    0
  9
$DIMSD1
 70
    0
  9
$DIMSD2
 70
    0
  9
$DIMTOLJ
 70
    0
  9
$DIMTZIN
 70
    8
  9
$DIMALTZ
 70
    0
  9
$DIMALTTZ
 70
    0
  9
$DIMUPT
 70
    0
  9
$DIMDEC
 70
    2
  9
$DIMTDEC
 70
    2
  9
$DIMALTU
 70
    2
  9
$DIMALTTD
 70
    3
  9
$DIMTXSTY
  7
STANDARD
  9
$DIMAUNIT
 70
    0
  9
$DIMADEC
 70
    0
  9
$DIMALTRND
 40
0
  9
$DIMAZIN
 70
    0
  9
$DIMDSEP
 70
   44
  9
$DIMATFIT
 70
    3
  9
$DIMFRAC
 70
    0
  9
$DIMLDRBLK
  1
STANDARD
  9
$DIMLUNIT
 70
    2
  9
$DIMLWD
 70
   -2
  9
$DIMLWE
 70
   -2
  9
$DIMTMOVE
 70
    0
  9
$DIMFXL
 40
1
  9
$DIMFXLON
 70
    0
  9
$DIMJOGANG
 40
0.7854
  9
$DIMTFILL
 70
    0
  9
$DIMTFILLCLR
 70
    0
  9
$DIMARCSYM
 70
    0
  9
$DIMLTYPE
  6

  9
$DIMLTEX1
  6

  9
$DIMLTEX2
  6

  9
$LUNITS
 70
    2
  9
$LUPREC
 70
    4
  9
$SKETCHINC
 40
1
  9
$FILLETRAD
 40
0
  9
$AUNITS
 70
    0
  9
$AUPREC
 70
    2
  9
$MENU
  1
.
  9
$ELEVATION
 40
0
  9
$PELEVATION
 40
0
  9
$THICKNESS
 40
0
  9
$LIMCHECK
 70
    0
  9
$CHAMFERA
 40
0
  9
$CHAMFERB
 40
0
  9
$CHAMFERC
 40
0
  9
$CHAMFERD
 40
0
  9
$SKPOLY
 70
    0
  9
$USRTIMER
 70
    1
  9
$ANGBASE
 50
0
  9
$ANGDIR
 70
    0
  9
$PDMODE
 70
   34
  9
$PDSIZE
 40
0
  9
$PLINEWID
 40
0
  9
$SPLFRAME
 70
    0
  9
$SPLINETYPE
 70
    2
  9
$SPLINESEGS
 70
    8
  9
$HANDSEED
  5
20000
  9
$SURFTAB1
 70
    6
  9
$SURFTAB2
 70
    6
  9
$SURFTYPE
 70
    6
  9
$SURFU
 70
    6
  9
$SURFV
 70
    6
  9
$UCSBASE
  2

  9
$UCSNAME
  2

  9
$UCSORG
 10
0
 20
0
 30
0
  9
$UCSXDIR
 10
1
 20
0
 30
0
  9
$UCSYDIR
 10
0
 20
1
 30
0
  9
$UCSORTHOREF
  2

  9
$UCSORTHOVIEW
 70
    0
  9
$UCSORGTOP
 10
0
 20
0
 30
0
  9
$UCSORGBOTTOM
 10
0
 20
0
 30
0
  9
$UCSORGLEFT
 10
0
 20
0
 30
0
  9
$UCSORGRIGHT
 10
0
 20
0
 30
0
  9
$UCSORGFRONT
 10
0
 20
0
 30
0
  9
$UCSORGBACK
 10
0
 20
0
 30
0
  9
$PUCSBASE
  2

  9
$PUCSNAME
  2

  9
$PUCSORG
 10
0
 20
0
 30
0
  9
$PUCSXDIR
 10
1
 20
0
 30
0
  9
$PUCSYDIR
 10
0
 20
1
 30
0
  9
$PUCSORTHOREF
  2

  9
$PUCSORTHOVIEW
 70
    0
  9
$PUCSORGTOP
 10
0
 20
0
 30
0
  9
$PUCSORGBOTTOM
 10
0
 20
0
 30
0
  9
$PUCSORGLEFT
 10
0
 20
0
 30
0
  9
$PUCSORGRIGHT
 10
0
 20
0
 30
0
  9
$PUCSORGFRONT
 10
0
 20
0
 30
0
  9
$PUCSORGBACK
 10
0
 20
0
 30
0
  9
$USERI1
 70
    0
  9
$USERI2
 70
    0
  9
$USERI3
 70
    0
  9
$USERI4
 70
    0
  9
$USERI5
 70
    0
  9
$USERR1
 40
0
  9
$USERR2
 40
0
  9
$USERR3
 40
0
  9
$USERR4
 40
0
  9
$USERR5
 40
0
  9
$WORLDVIEW
 70
    1
  9
$SHADEDGE
 70
    3
  9
$SHADEDIF
 70
   70
  9
$TILEMODE
 70
    1
  9
$MAXACTVP
 70
   64
  9
$PINSBASE
 10
0
 20
0
 30
0
  9
$PLIMCHECK
 70
    0
  9
$PEXTMIN
 10
0
 20
0
 30
0
  9
$PEXTMAX
 10
0
 20
0
 30
0
  9
$SNAPSTYLE
 70
    0
  9
$PLIMMIN
 10
0
 20
0
  9
$PLIMMAX
 10
210
 20
297
  9
$UNITMODE
 70
    0
  9
$VISRETAIN
 70
    1
  9
$PLINEGEN
 70
    0
  9
$PSLTSCALE
 70
    1
  9
$TREEDEPTH
 70
 3020
  9
$CMLSTYLE
  2
Standard
  9
$CMLJUST
 70
    0
  9
$CMLSCALE
 40
20
  9
$PROXYGRAPHICS
 70
    1
  9
$MEASUREMENT
 70
    1
  9
$CELWEIGHT
370
   -1
  9
$ENDCAPS
280
    0
  9
$JOINSTYLE
280
    0
  9
$LWDISPLAY
290
    0
  9
$INSUNITS
 70
    4
  9
$HYPERLINKBASE
  1

  9
$STYLESHEET
  1

  9
$XEDIT
290
    1
  9
$CEPSNTYPE
380
    0
  9
$PSTYLEMODE
290
    1
  9
$EXTNAMES
290
    1
  9
$PSVPSCALE
 40
1
  9
$OLESTARTUP
290
    0
  9
$SORTENTS
280
  127
  9
$INDEXCTL
280
    0
  9
$HIDETEXT
280
    1
  9
$XCLIPFRAME
290
    0
  9
$HALOGAP
280
    0
  9
$OBSCOLOR
 70
  257
  9
$OBSLTYPE
280
    0
  9
$INTERSECTIONDISPLAY
280
    0
  9
$INTERSECTIONCOLOR
 70
  257
  9
$DIMASSOC
280
    1
  9
$PROJECTNAME
  1

  9
$CAMERADISPLAY
290
    0
  9
$LENSLENGTH
 40
50
  9
$CAMERAHEIGHT
 40
0
  9
$STEPSPERSEC
 40
2
  9
$STEPSIZE
 40
50
  9
$3DDWFPREC
 40
2
  9
$PSOLWIDTH
 40
5
  9
$PSOLHEIGHT
 40
80
  9
$LOFTANG1
 40
1.570796326794897
  9
$LOFTANG2
 40
1.570796326794897
  9
$LOFTMAG1
 40
0
  9
$LOFTMAG2
 40
0
  9
$LOFTPARAM
 70
    7
  9
$LOFTNORMALS
280
    1
  9
$LATITUDE
 40
1
  9
$LONGITUDE
 40
1
  9
$NORTHDIRECTION
 40
0
  9
$TIMEZONE
 70
-8000
  9
$LIGHTGLYPHDISPLAY
280
    1
  9
$TILEMODELIGHTSYNCH
280
    1
  9
$SOLIDHIST
280
    1
  9
$SHOWHIST
280
    1
  9
$DWFFRAME
280
    2
  9
$DGNFRAME
280
    0
  9
$REALWORLDSCALE
290
    1
  9
$INTERFERECOLOR
 62
    1
  9
$CSHADOW
280
    0
  9
$SHADOWPLANELOCATION
 40
0
  0
ENDSEC
  0
SECTION
  2
CLASSES
  0
ENDSEC
  0
SECTION
  2
TABLES
  0
TABLE
  2
VPORT
  5
8
330
0
100
AcDbSymbolTable
 70
    1
  0
VPORT
  5
31
330
2
100
AcDbSymbolTableRecord
100
AcDbViewportTableRecord
  2
*ACTIVE
 70
    0
 10
0
 20
0
 11
1
 21
1
 12
300.7087339197867
 22
40.1420031851848
 13
0
 23
0
 14
10
 24
10
 15
10
 25
10
 16
0
 26
0
 36
1
 17
0
 27
0
 37
0
 40
385.2682199193476
 41
1.955610357583231
 42
50
 43
0
 44
0
 50
0
 51
0
 71
    0
 72
  100
 73
    1
 74
    3
 75
    0
 76
    1
 77
    0
 78
    0
281
    0
 65
    1
110
0
120
0
130
0
111
1
121
0
131
0
112
0
122
1
132
0
 79
    0
146
0
348
10020
 60
    7
 61
    5
292
1
282
    1
141
0
142
0
 63
  250
421
3358443
  0
ENDTAB
  0
TABLE
  2
LTYPE
  5
5
330
0
100
AcDbSymbolTable
 70
    4
  0
LTYPE
  5
14
330
5
100
AcDbSymbolTableRecord
100
AcDbLinetypeTableRecord
  2
ByBlock
 70
    0
  3

 72
   65
 73
    0
 40
0
  0
LTYPE
  5
15
330
5
100
AcDbSymbolTableRecord
100
AcDbLinetypeTableRecord
  2
ByLayer
 70
    0
  3

 72
   65
 73
    0
 40
0
  0
LTYPE
  5
16
330
5
100
AcDbSymbolTableRecord
100
AcDbLinetypeTableRecord
  2
Continuous
 70
    0
  3
Solid line
 72
   65
 73
    0
 40
0
  0
LTYPE
  5
32
330
5
100
AcDbSymbolTableRecord
100
AcDbLinetypeTableRecord
  2
DOT
 70
    0
  3
Dot . . . . . . . . . . . . . . . . . . . . . .
 72
   65
 73
    2
 40
6.35
 49
0
 74
    0
 49
-6.35
 74
    0
  0
LTYPE
  5
33
330
5
100
AcDbSymbolTableRecord
100
AcDbLinetypeTableRecord
  2
DOTTINY
 70
    0
  3
Dot (.15x) .....................................
 72
   65
 73
    2
 40
0.9525
 49
0
 74
    0
 49
-0.9525
 74
    0
  0
LTYPE
  5
34
330
5
100
AcDbSymbolTableRecord
100
AcDbLinetypeTableRecord
  2
DOT2
 70
    0
  3
Dot (.5x) .....................................
 72
   65
 73
    2
 40
3.175
 49
0
 74
    0
 49
-3.175
 74
    0
  0
LTYPE
  5
35
330
5
100
AcDbSymbolTableRecord
100
AcDbLinetypeTableRecord
  2
DOTX2
 70
    0
  3
Dot (2x) .  .  .  .  .  .  .  .  .  .  .  .  .
 72
   65
 73
    2
 40
12.7
 49
0
 74
    0
 49
-12.7
 74
    0
  0
LTYPE
  5
36
330
5
100
AcDbSymbolTableRecord
100
AcDbLinetypeTableRecord
  2
DASHED
 70
    0
  3
Dashed _ _ _ _ _ _ _ _ _ _ _ _ _ _ _ _ _
 72
   65
 73
    2
 40
19.05
 49
12.7
 74
    0
 49
-6.35
 74
    0
  0
LTYPE
  5
37
330
5
100
AcDbSymbolTableRecord
100
AcDbLinetypeTableRecord
  2
DASHEDTINY
 70
    0
  3
Dashed (.15x) _ _ _ _ _ _ _ _ _ _ _ _ _ _ _ _ _
 72
   65
 73
    2
 40
2.8575
 49
1.905
 74
    0
 49
-0.9525
 74
    0
  0
LTYPE
  5
38
330
5
100
AcDbSymbolTableRecord
100
AcDbLinetypeTableRecord
  2
DASHED2
 70
    0
  3
Dashed (.5x) _ _ _ _ _ _ _ _ _ _ _ _ _ _ _ _ _
 72
   65
 73
    2
 40
9.524999999999999
 49
6.35
 74
    0
 49
-3.175
 74
    0
  0
LTYPE
  5
39
330
5
100
AcDbSymbolTableRecord
100
AcDbLinetypeTableRecord
  2
DASHEDX2
 70
    0
  3
Dashed (2x) ____  ____  ____  ____  ____  ___
 72
   65
 73
    2
 40
38.09999999999999
 49
25.4
 74
    0
 49
-12.7
 74
    0
  0
LTYPE
  5
3A
330
5
100
AcDbSymbolTableRecord
100
AcDbLinetypeTableRecord
  2
DASHDOT
 70
    0
  3
Dash dot __ . __ . __ . __ . __ . __ . __ . __
 72
   65
 73
    4
 40
25.4
 49
12.7
 74
    0
 49
-6.35
 74
    0
 49
0
 74
    0
 49
-6.35
 74
    0
  0
LTYPE
  5
3B
330
5
100
AcDbSymbolTableRecord
100
AcDbLinetypeTableRecord
  2
DASHDOTTINY
 70
    0
  3
Dash dot (.15x) _._._._._._._._._._._._._._._.
 72
   65
 73
    4
 40
3.81
 49
1.905
 74
    0
 49
-0.9525
 74
    0
 49
0
 74
    0
 49
-0.9525
 74
    0
  0
LTYPE
  5
3C
330
5
100
AcDbSymbolTableRecord
100
AcDbLinetypeTableRecord
  2
DASHDOT2
 70
    0
  3
Dash dot (.5x) _._._._._._._._._._._._._._._.
 72
   65
 73
    4
 40
12.7
 49
6.35
 74
    0
 49
-3.175
 74
    0
 49
0
 74
    0
 49
-3.175
 74
    0
  0
LTYPE
  5
3D
330
5
100
AcDbSymbolTableRecord
100
AcDbLinetypeTableRecord
  2
DASHDOTX2
 70
    0
  3
Dash dot (2x) ____  .  ____  .  ____  .  ___
 72
   65
 73
    4
 40
50.8
 49
25.4
 74
    0
 49
-12.7
 74
    0
 49
0
 74
    0
 49
-12.7
 74
    0
  0
LTYPE
  5
3E
330
5
100
AcDbSymbolTableRecord
100
AcDbLinetypeTableRecord
  2
DIVIDE
 70
    0
  3
Divide ____ . . ____ . . ____ . . ____ . . ____
 72
   65
 73
    6
 40
31.75
 49
12.7
 74
    0
 49
-6.35
 74
    0
 49
0
 74
    0
 49
-6.35
 74
    0
 49
0
 74
    0
 49
-6.35
 74
    0
  0
LTYPE
  5
3F
330
5
100
AcDbSymbolTableRecord
100
AcDbLinetypeTableRecord
  2
DIVIDETINY
 70
    0
  3
Divide (.15x) __..__..__..__..__..__..__..__.._
 72
   65
 73
    6
 40
4.7625
 49
1.905
 74
    0
 49
-0.9525
 74
    0
 49
0
 74
    0
 49
-0.9525
 74
    0
 49
0
 74
    0
 49
-0.9525
 74
    0
  0
LTYPE
  5
40
330
5
100
AcDbSymbolTableRecord
100
AcDbLinetypeTableRecord
  2
DIVIDE2
 70
    0
  3
Divide (.5x) __..__..__..__..__..__..__..__.._
 72
   65
 73
    6
 40
15.875
 49
6.35
 74
    0
 49
-3.175
 74
    0
 49
0
 74
    0
 49
-3.175
 74
    0
 49
0
 74
    0
 49
-3.175
 74
    0
  0
LTYPE
  5
41
330
5
100
AcDbSymbolTableRecord
100
AcDbLinetypeTableRecord
  2
DIVIDEX2
 70
    0
  3
Divide (2x) ________  .  .  ________  .  .  _
 72
   65
 73
    6
 40
63.5
 49
25.4
 74
    0
 49
-12.7
 74
    0
 49
0
 74
    0
 49
-12.7
 74
    0
 49
0
 74
    0
 49
-12.7
 74
    0
  0
LTYPE
  5
42
330
5
100
AcDbSymbolTableRecord
100
AcDbLinetypeTableRecord
  2
BORDER
 70
    0
  3
Border __ __ . __ __ . __ __ . __ __ . __ __ .
 72
   65
 73
    6
 40
44.45
 49
12.7
 74
    0
 49
-6.35
 74
    0
 49
12.7
 74
    0
 49
-6.35
 74
    0
 49
0
 74
    0
 49
-6.35
 74
    0
  0
LTYPE
  5
43
330
5
100
AcDbSymbolTableRecord
100
AcDbLinetypeTableRecord
  2
BORDERTINY
 70
    0
  3
Border (.15x) __.__.__.__.__.__.__.__.__.__.__.
 72
   65
 73
    6
 40
6.6675
 49
1.905
 74
    0
 49
-0.9525
 74
    0
 49
1.905
 74
    0
 49
-0.9525
 74
    0
 49
0
 74
    0
 49
-0.9525
 74
    0
  0
LTYPE
  5
44
330
5
100
AcDbSymbolTableRecord
100
AcDbLinetypeTableRecord
  2
BORDER2
 70
    0
  3
Border (.5x) __.__.__.__.__.__.__.__.__.__.__.
 72
   65
 73
    6
 40
22.225
 49
6.35
 74
    0
 49
-3.175
 74
    0
 49
6.35
 74
    0
 49
-3.175
 74
    0
 49
0
 74
    0
 49
-3.175
 74
    0
  0
LTYPE
  5
45
330
5
100
AcDbSymbolTableRecord
100
AcDbLinetypeTableRecord
  2
BORDERX2
 70
    0
  3
Border (2x) ____  ____  .  ____  ____  .  ___
 72
   65
 73
    6
 40
88.89999999999999
 49
25.4
 74
    0
 49
-12.7
 74
    0
 49
25.4
 74
    0
 49
-12.7
 74
    0
 49
0
 74
    0
 49
-12.7
 74
    0
  0
LTYPE
  5
46
330
5
100
AcDbSymbolTableRecord
100
AcDbLinetypeTableRecord
  2
CENTER
 70
    0
  3
Center ____ _ ____ _ ____ _ ____ _ ____ _ ____
 72
   65
 73
    4
 40
50.8
 49
31.75
 74
    0
 49
-6.35
 74
    0
 49
6.35
 74
    0
 49
-6.35
 74
    0
  0
LTYPE
  5
47
330
5
100
AcDbSymbolTableRecord
100
AcDbLinetypeTableRecord
  2
CENTERTINY
 70
    0
  3
Center (.15x) ___ _ ___ _ ___ _ ___ _ ___ _ ___
 72
   65
 73
    4
 40
7.62
 49
4.7625
 74
    0
 49
-0.9525
 74
    0
 49
0.9525
 74
    0
 49
-0.9525
 74
    0
  0
LTYPE
  5
48
330
5
100
AcDbSymbolTableRecord
100
AcDbLinetypeTableRecord
  2
CENTER2
 70
    0
  3
Center (.5x) ___ _ ___ _ ___ _ ___ _ ___ _ ___
 72
   65
 73
    4
 40
28.575
 49
19.05
 74
    0
 49
-3.175
 74
    0
 49
3.175
 74
    0
 49
-3.175
 74
    0
  0
LTYPE
  5
49
330
5
100
AcDbSymbolTableRecord
100
AcDbLinetypeTableRecord
  2
CENTERX2
 70
    0
  3
Center (2x) ________  __  ________  __  _____
 72
   65
 73
    4
 40
101.6
 49
63.5
 74
    0
 49
-12.7
 74
    0
 49
12.7
 74
    0
 49
-12.7
 74
    0
  0
ENDTAB
  0
TABLE
  2
LAYER
  5
2
330
0
100
AcDbSymbolTable
 70
    1
  0
LAYER
  5
10
330
2
100
AcDbSymbolTableRecord
100
AcDbLayerTableRecord
  2
0
 70
    0
 62
    7
  6
CONTINUOUS
370
   -3
390
F
  0
ENDTAB
  0
TABLE
  2
STYLE
  5
3
330
0
100
AcDbSymbolTable
 70
    3
  0
STYLE
  5
4A
330
2
100
AcDbSymbolTableRecord
100
AcDbTextStyleTableRecord
  2
Standard
 70
    0
 40
0
 41
1
 50
0
 71
    0
 42
1
  3
txt
  4

  0
ENDTAB
  0
TABLE
  2
VIEW
  5
6
330
0
100
AcDbSymbolTable
 70
    0
  0
ENDTAB
  0
TABLE
  2
UCS
  5
7
330
0
100
AcDbSymbolTable
 70
    0
  0
ENDTAB
  0
TABLE
  2
APPID
  5
9
330
0
100
AcDbSymbolTable
 70
    1
  0
APPID
  5
12
330
9
100
AcDbSymbolTableRecord
100
AcDbRegAppTableRecord
  2
ACAD
 70
    0
  0
APPID
  5
4B
330
9
100
AcDbSymbolTableRecord
100
AcDbRegAppTableRecord
  2
LibreCad
 70
    0
  0
ENDTAB
  0
TABLE
  2
DIMSTYLE
  5
A
330
0
100
AcDbSymbolTable
 70
    1
100
AcDbDimStyleTable
 71
    1
  0
DIMSTYLE
105
4C
330
A
100
AcDbSymbolTableRecord
100
AcDbDimStyleTableRecord
  2
Standard
 70
    0
 40
1
 41
2.5
 42
0.625
 43
0.38
 44
1.25
 45
0
 46
0
 47
0
 48
0
 49
1
140
2.5
141
0.09
142
2.5
143
25.4
144
1
145
0
146
1
147
0.625
148
0
 71
    0
 72
    0
 73
    0
 74
    1
 75
    0
 76
    0
 77
    0
 78
    1
 79
    0
170
    0
171
    2
172
    0
173
    0
174
    0
175
    0
176
    0
177
    0
178
    0
179
    0
271
    2
272
    4
273
    2
274
    2
275
    0
276
    0
277
    2
278
    0
279
    0
280
    0
281
    0
282
    0
283
    1
284
    0
285
    0
286
    0
288
    0
289
    3
340
standard
341

371
   -2
372
   -2
  0
ENDTAB
  0
TABLE
  2
BLOCK_RECORD
  5
1
330
0
100
AcDbSymbolTable
 70
    2
  0
BLOCK_RECORD
  5
1F
330
1
100
AcDbSymbolTableRecord
100
AcDbBlockTableRecord
  2
*Model_Space
 70
    0
280
    1
281
    0
  0
BLOCK_RECORD
  5
1E
330
1
100
AcDbSymbolTableRecord
100
AcDbBlockTableRecord
  2
*Paper_Space
 70
    0
280
    1
281
    0
  0
ENDTAB
  0
ENDSEC
  0
SECTION
  2
BLOCKS
  0
BLOCK
  5
20
330
1F
100
AcDbEntity
  8
0
100
AcDbBlockBegin
  2
*Model_Space
 70
    0
 10
0
 20
0
 30
0
  3
*Model_Space
  1

  0
ENDBLK
  5
21
330
1F
100
AcDbEntity
  8
0
100
AcDbBlockEnd
  0
BLOCK
  5
1C
330
1B
100
AcDbEntity
  8
0
100
AcDbBlockBegin
  2
*Paper_Space
 70
    0
 10
0
 20
0
 30
0
  3
*Paper_Space
  1

  0
ENDBLK
  5
1D
330
1F
100
AcDbEntity
  8
0
100
AcDbBlockEnd
  0
ENDSEC
  0
SECTION
  2
ENTITIES
  0
LWPOLYLINE
  5
4D
100
AcDbEntity
  8
0
  6
ByLayer
 62
  256
370
   -1
100
AcDbPolyline
 90
    8
 70
    1
 43
0
 10
127.9543045
 20
-91.32660500000111
 10
126.653304500001
 20
-90.0256049999998
 10
126.653304500001
 20
-78.62760500000061
 10
127.9543045
 20
-77.32660500000109
 10
139.9523045
 20
-77.32660500000109
 10
141.253304499999
 20
-78.62760500000061
 10
141.253304499999
 20
-90.0256049999998
 10
139.9523045
 20
-91.32660500000111
  0
LWPOLYLINE
  5
4E
100
AcDbEntity
  8
0
  6
ByLayer
 62
  256
370
   -1
100
AcDbPolyline
 90
    8
 70
    1
 43
0
 10
216.1523045
 20
-77.32660500000109
 10
217.4533045
 20
-78.62760500000061
 10
217.4533045
 20
-90.0256049999998
 10
216.1523045
 20
-91.32660500000111
 10
204.154304499999
 20
-91.32660500000111
 10
202.853304499999
 20
-90.0256049999998
 10
202.853304499999
 20
-78.62760500000061
 10
204.154304499999
 20
-77.32660500000109
  0
LWPOLYLINE
  5
4F
100
AcDbEntity
  8
0
  6
ByLayer
 62
  256
370
   -1
100
AcDbPolyline
 90
    8
 70
    1
 43
0
 10
84.1033044999994
 20
-90.0256049999998
 10
82.80230449999991
 20
-91.32660500000111
 10
70.8043045000003
 20
-91.32660500000111
 10
69.503304499999
 20
-90.0256049999998
 10
69.503304499999
 20
-78.62760500000061
 10
70.8043045000004
 20
-77.32660500000109
 10
82.80230449999991
 20
-77.32660500000109
 10
84.1033044999994
 20
-78.62760500000061
  0
LWPOLYLINE
  5
50
100
AcDbEntity
  8
0
  6
ByLayer
 62
  256
370
   -1
100
AcDbPolyline
 90
    8
 70
    1
 43
0
 10
235.2023045
 20
-77.32660500000109
 10
236.503304499999
 20
-78.62760500000061
 10
236.503304499999
 20
-90.0256049999998
 10
235.2023045
 20
-91.32660500000111
 10
223.2043045
 20
-91.32660500000111
 10
221.9033045
 20
-90.0256049999998
 10
221.9033045
 20
-78.62760500000061
 10
223.2043045
 20
-77.32660500000109
  0
LWPOLYLINE
  5
51
100
AcDbEntity
  8
0
  6
ByLayer
 62
  256
370
   -1
100
AcDbPolyline
 90
    8
 70
    1
 43
0
 10
92.32730449999961
 20
-72.276605
 10
80.32930450000001
 20
-72.276605
 10
79.0283045000005
 20
-70.9756050000006
 10
79.0283045000005
 20
-59.57760500000131
 10
80.32930450000011
 20
-58.276605
 10
92.32730449999961
 20
-58.276605
 10
93.62830449999902
 20
-59.57760500000131
 10
93.62830449999902
 20
-70.9756050000006
  0
LWPOLYLINE
  5
52
100
AcDbEntity
  8
0
  6
ByLayer
 62
  256
370
   -1
100
AcDbPolyline
 90
    8
 70
    1
 43
0
 10
246.028304500001
 20
-59.57760500000131
 10
246.028304500001
 20
-70.9756050000006
 10
244.727304499999
 20
-72.276605
 10
232.729304499999
 20
-72.276605
 10
231.4283045
 20
-70.9756050000006
 10
231.4283045
 20
-59.57760500000131
 10
232.729304499999
 20
-58.276605
 10
244.727304499999
 20
-58.276605
  0
LWPOLYLINE
  5
53
100
AcDbEntity
  8
0
  6
ByLayer
 62
  256
370
   -1
100
AcDbPolyline
 90
    6
 70
    1
 43
0
 10
280.3033045
 20
-72.2766050000001
 10
254.3033045
 20
-72.276605
 10
251.3033045
 20
-70.5446050000001
 10
251.3033045
 20
-58.276605
 10
283.3033045000001
 20
-58.276605
 10
283.3033045000001
 20
-70.5446050000001
  0
LWPOLYLINE
  5
54
100
AcDbEntity
  8
0
  6
ByLayer
 62
  256
370
   -1
100
AcDbPolyline
 90
    6
 70
    1
 43
0
 10
248.9220545
 20
-96.3766050000004
 10
280.9220545
 20
-96.37660500000051
 10
280.9220545
 20
-108.644605
 10
277.9220545
 20
-110.376605
 10
251.9220545
 20
-110.376605
 10
248.9220545
 20
-108.644605
  0
LWPOLYLINE
  5
55
100
AcDbEntity
  8
0
  6
ByLayer
 62
  256
370
   -1
100
AcDbPolyline
 90
  105
 70
    1
 43
0
 10
210.5864575
 20
-153.9701049999999
 10
269.2381525000001
 20
-153.9701050000001
 42
-0.2679491924311412
 10
272.2692414132456
 20
-155.7201050000002
 42
0.577350279495349
 10
276.5993685867542
 20
-155.7201050000002
 42
-0.2679491924311421
 10
279.6304575
 20
-153.9701049999999
 10
327.2381525
 20
-153.9701053809758
 42
-0.2679491762505922
 10
330.2692409776342
 20
-155.7201050074509
 42
0.5773503076758358
 10
334.5993685867546
 20
-155.7201049999998
 42
-0.2679491924310987
 10
337.6304575
 20
-153.970105
 10
341.1986795000001
 20
-153.970105945797
 42
0.2269670884449208
 10
342.756271862963
 20
-153.2246606241271
 42
-0.4785881436102932
 10
345.0926591370369
 20
-153.224660624127
 42
0.2269670059960479
 10
346.6502505
 20
-153.9701051670013
 10
346.8987705
 20
-153.970105
 42
0.1989123673796649
 10
348.6665374529663
 20
-153.2378719529663
 10
349.702071452966
 20
-152.202337952966
 42
0.1989123673796596
 10
350.4343045000001
 20
-150.434571
 10
350.4343045000011
 20
-114.578444
 42
0.1989123673798523
 10
350.1414112811868
 20
-113.8713372188132
 10
346.9395727188141
 20
-110.6694987811869
 42
-0.1989123673796534
 10
346.6466795000005
 20
-109.962392
 10
346.6466795000005
 20
-96.790819
 42
-0.198912367379766
 10
346.939572718814
 20
-96.0837122188134
 10
350.1414115
 20
-92.88187300000001
 42
0.198912183608521
 10
350.4343041023426
 20
-92.174767
 10
350.4343045
 20
-32.50613899999999
 42
0.1989123673797416
 10
349.7020714529663
 20
-30.7383720470336
 10
348.666537452967
 20
-29.70283804703359
 42
0.1989123673796749
 10
346.8987705
 20
-28.97060499999981
 10
343.2010555
 20
-28.970605
 42
0.233209420142215
 10
341.6141542766687
 20
-29.75333571697739
 42
-0.4932448076136641
 10
339.2338027233316
 20
-29.75333571697781
 42
0.2332094201422972
 10
337.6469015
 20
-28.97060499999974
 10
337.6304575
 20
-28.97060548505072
 42
-0.2679492145290219
 10
334.5993680223648
 20
-27.22060499255001
 42
0.5773502691896156
 10
330.2692413075687
 20
-27.22060518303716
 42
-0.2679491762505851
 10
327.2381525
 20
-28.97060499999994
 10
279.6304575
 20
-28.97060500000013
 42
-0.2679491924311272
 10
276.5993685867542
 20
-27.22060499999996
 42
0.5773502794953549
 10
272.2692414132457
 20
-27.22060499999984
 42
-0.267949192431141
 10
269.2381525000001
 20
-28.97060500000004
 10
217.6304575
 20
-28.97060499999993
 42
-0.2679491924311154
 10
214.5993685867547
 20
-27.22060500000009
 42
0.5773503076759073
 10
210.269241307569
 20
-27.22060518303746
 42
-0.2679491762505601
 10
207.2381525
 20
-28.97060500000012
 10
177.2010555
 20
-28.9706049999999
 42
0.2332094201422873
 10
175.6141542766683
 20
-29.75333571697786
 42
-0.4932448076135491
 10
173.2338027233317
 20
-29.75333571697784
 42
0.2332094201422962
 10
171.6469015
 20
-28.97060499999979
 10
141.6303345
 20
-28.9706054850495
 42
-0.2679492145290014
 10
138.599245022366
 20
-27.22060499254953
 42
0.5773502691896546
 10
134.2691183075688
 20
-27.2206051830372
 42
-0.2679491762505723
 10
131.2380295
 20
-28.97060499999988
 10
79.62995750000002
 20
-28.97060548504811
 42
-0.2679492145290165
 10
76.59886802236704
 20
-27.22060499254874
 42
0.5773502691896304
 10
72.26874130756892
 20
-27.22060518303741
 42
-0.2679491762505556
 10
69.2376525
 20
-28.97060500000002
 10
21.6299575
 20
-28.97060499999994
 42
-0.2679491924311183
 10
18.59886858675446
 20
-27.22060499999996
 42
0.5773502794953882
 10
14.26874141324565
 20
-27.22060499999993
 42
-0.267949192431125
 10
11.2376525
 20
-28.97060500000001
 10
11.2010555
 20
-28.9706049999999
 42
0.2332094201422641
 10
9.614154276668687
 20
-29.75333571697771
 42
-0.4932447850457084
 10
7.233802789618159
 20
-29.753335803393
 42
0.2332094344965142
 10
5.64690150000001
 20
-28.97060499999994
 10
1.96983850000002
 20
-28.9706049334844
 42
0.1989123673796552
 10
0.2020714999999627
 20
-29.70283799999999
 10
-0.8334625332577872
 20
-30.7383721273249
 42
0.1989123573075007
 10
-1.565695512522499
 20
-32.506139016661
 10
-1.565695102342417
 20
-92.174767
 42
0.1989121836085189
 10
-1.272802500000015
 20
-92.88187299999998
 10
0.9290362811864976
 20
-96.08371221881343
 42
-0.1989123673796361
 10
1.221929499999949
 20
-96.79081899999991
 10
1.22192950000008
 20
-109.962392
 42
-0.1991139605411018
 10
0.9284875997524794
 20
-110.6700470371999
 10
0.928341393095522
 20
-110.670509263716
 10
-1.272802281186572
 20
-113.871337218813
 42
0.1989123673797368
 10
-1.565695499999999
 20
-114.578444
 10
-1.565695561868079
 20
-150.4345709974234
 42
0.1989123676475187
 10
-0.8334624999999911
 20
-152.202338
 10
0.2020715470335708
 20
-153.237871952966
 42
0.1989123673796886
 10
1.96983849999999
 20
-153.9701050000001
 10
2.19867949999998
 20
-153.970105
 42
0.2269670653262579
 10
3.756271016049125
 20
-153.224660167831
 42
-0.4785881796393748
 10
6.092659873619402
 20
-153.2246600308492
 42
0.226967005996093
 10
7.650250499999981
 20
-153.9701042212043
 10
11.2376524999999
 20
-153.9701050000002
 42
-0.2679491924311164
 10
14.26874141324522
 20
-155.720105
 42
0.5773502794954229
 10
18.59886858675447
 20
-155.720105
 42
-0.2679491924311247
 10
21.6299575
 20
-153.970105
 10
69.23765250000001
 20
-153.9701049999999
 42
-0.2679491924311251
 10
72.26874141324564
 20
-155.720105
 42
0.5773502410092207
 10
76.59886844243127
 20
-155.7201052499751
 42
-0.2679492145290001
 10
79.62995750000002
 20
-153.970105
 10
138.2380295
 20
-153.9701053809758
 42
-0.2679491762505871
 10
141.2691179776343
 20
-155.7201050074508
 42
0.5773502691896115
 10
145.5992454424312
 20
-155.7201052499752
 42
-0.2679492145290044
 10
148.6303345
 20
-153.970105
 10
171.6986795
 20
-153.970105
 42
0.2269670653262481
 10
173.2562710160492
 20
-153.2246601678312
 42
-0.4785880871765242
 10
175.5926595904733
 20
-153.2246596793098
 42
0.2269670653262985
 10
177.1502505
 20
-153.9701042212045
 10
200.1941525
 20
-153.9701049999999
 42
-0.2679491924311394
 10
203.2252414132458
 20
-155.7201050000001
 42
0.5773502410091783
 10
207.5553684424312
 20
-155.7201052499751
 42
-0.2679492145290063
  0
LWPOLYLINE
  5
56
100
AcDbEntity
  8
0
  6
ByLayer
 62
  256
370
   -1
100
AcDbPolyline
 90
    8
 70
    1
 43
0
 10
80.10530449999982
 20
-134.606105
 10
102.054283938526
 20
-134.523625561474
 10
102.562283938526
 20
-135.031625561475
 10
102.562283938526
 20
-147.756625561474
 10
102.054283938526
 20
-148.264625561474
 10
80.10530449999982
 20
-148.347105
 10
79.59730450000001
 20
-147.839105
 10
79.59730450000001
 20
-135.114105000002
  0
LWPOLYLINE
  5
57
100
AcDbEntity
  8
0
  6
ByLayer
 62
  256
370
   -1
100
AcDbPolyline
 90
    6
 70
    1
 43
0
 10
244.159554499999
 20
-115.426605000002
 10
276.159554499999
 20
-115.426605000002
 10
276.159554499999
 20
-127.694605000002
 10
273.159554499999
 20
-129.426605000002
 10
247.159554499999
 20
-129.426605000002
 10
244.159554499999
 20
-127.694605000002
  0
LWPOLYLINE
  5
58
100
AcDbEntity
  8
0
  6
ByLayer
 62
  256
370
   -1
100
AcDbPolyline
 90
    8
 70
    1
 43
0
 10
264.7658045
 20
-90.0256049999998
 10
264.7658045
 20
-78.62760500000061
 10
266.066804499999
 20
-77.32660500000109
 10
278.064804499999
 20
-77.32660500000119
 10
279.3658045
 20
-78.6276050000007
 10
279.3658045
 20
-90.0256049999999
 10
278.064804499999
 20
-91.32660500000111
 10
266.066804499999
 20
-91.32660500000111
  0
LWPOLYLINE
  5
59
100
AcDbEntity
  8
0
  6
ByLayer
 62
  256
370
   -1
100
AcDbPolyline
 90
    8
 70
    1
 43
0
 10
213.6793045
 20
-72.276605
 10
212.378304499999
 20
-70.9756050000006
 10
212.378304499999
 20
-59.57760500000131
 10
213.6793045
 20
-58.276605
 10
225.6773045
 20
-58.276605
 10
226.978304499999
 20
-59.57760500000131
 10
226.978304499999
 20
-70.9756050000006
 10
225.6773045
 20
-72.276605
  0
LWPOLYLINE
  5
5A
100
AcDbEntity
  8
0
  6
ByLayer
 62
  256
370
   -1
100
AcDbPolyline
 90
    8
 70
    1
 43
0
 10
254.252304499999
 20
-77.32660500000109
 10
255.5533045
 20
-78.62760500000061
 10
255.5533045
 20
-90.0256049999998
 10
254.252304499999
 20
-91.32660500000111
 10
242.254304499999
 20
-91.32660500000111
 10
240.9533045
 20
-90.0256049999998
 10
240.9533045
 20
-78.62760500000061
 10
242.254304499999
 20
-77.32660500000109
  0
LWPOLYLINE
  5
5B
100
AcDbEntity
  8
0
  6
ByLayer
 62
  256
370
   -1
100
AcDbPolyline
 90
    8
 70
    1
 43
0
 10
231.7408045
 20
-128.125605
 10
230.439804499999
 20
-129.426605000002
 10
218.441804499999
 20
-129.426605000002
 10
217.1408045
 20
-128.125605
 10
217.1408045
 20
-116.727605000001
 10
218.441804499999
 20
-115.426605000002
 10
230.439804499999
 20
-115.426605000002
 10
231.7408045
 20
-116.727605000001
  0
LWPOLYLINE
  5
5C
100
AcDbEntity
  8
0
  6
ByLayer
 62
  256
370
   -1
100
AcDbPolyline
 90
    8
 70
    1
 43
0
 10
254.252304499999
 20
-148.476605000001
 10
242.254304499999
 20
-148.476605000001
 10
240.9533045
 20
-147.175605000001
 10
240.9533045
 20
-135.777605
 10
242.254304499999
 20
-134.476605000001
 10
254.252304499999
 20
-134.476605000001
 10
255.5533045
 20
-135.777605
 10
255.5533045
 20
-147.175605000001
  0
LWPOLYLINE
  5
5D
100
AcDbEntity
  8
0
  6
ByLayer
 62
  256
370
   -1
100
AcDbPolyline
 90
    8
 70
    1
 43
0
 10
231.7408045
 20
-147.175605000001
 10
230.439804499999
 20
-148.476605000001
 10
218.441804499999
 20
-148.476605000001
 10
217.1408045
 20
-147.175605000001
 10
217.1408045
 20
-135.777605
 10
218.441804499999
 20
-134.476605000001
 10
230.439804499999
 20
-134.476605000001
 10
231.7408045
 20
-135.777605
  0
LWPOLYLINE
  5
5E
100
AcDbEntity
  8
0
  6
ByLayer
 62
  256
370
   -1
100
AcDbPolyline
 90
    8
 70
    1
 43
0
 10
239.9648045
 20
-96.3766050000004
 10
241.2658045
 20
-97.67760500000001
 10
241.2658045
 20
-109.075605000001
 10
239.9648045
 20
-110.376605
 10
227.966804500001
 20
-110.376605
 10
226.665804499999
 20
-109.075605000001
 10
226.665804499999
 20
-97.67760500000001
 10
227.966804500001
 20
-96.3766050000004
  0
LWPOLYLINE
  5
5F
100
AcDbEntity
  8
0
  6
ByLayer
 62
  256
370
   -1
100
AcDbPolyline
 90
    8
 70
    1
 43
0
 10
222.2158045
 20
-109.075605000001
 10
220.914804499999
 20
-110.376605
 10
208.9168045
 20
-110.376605
 10
207.6158045
 20
-109.075605000001
 10
207.6158045
 20
-97.67760500000001
 10
208.9168045
 20
-96.3766050000004
 10
220.914804499999
 20
-96.3766050000004
 10
222.2158045
 20
-97.67760500000001
  0
LWPOLYLINE
  5
60
100
AcDbEntity
  8
0
  6
ByLayer
 62
  256
370
   -1
100
AcDbPolyline
 90
    8
 70
    1
 43
0
 10
161.2918045
 20
-115.426605000002
 10
173.289804499999
 20
-115.426605000002
 10
174.5908045
 20
-116.727605000001
 10
174.5908045
 20
-128.125605
 10
173.289804499999
 20
-129.426605000002
 10
161.2918045
 20
-129.426605000002
 10
159.9908045
 20
-128.125605
 10
159.9908045
 20
-116.727605000001
  0
LWPOLYLINE
  5
61
100
AcDbEntity
  8
0
  6
ByLayer
 62
  256
370
   -1
100
AcDbPolyline
 90
    8
 70
    1
 43
0
 10
170.816804499999
 20
-110.376605
 10
169.5158045
 20
-109.075605000001
 10
169.5158045
 20
-97.67760499999991
 10
170.816804499999
 20
-96.3766050000004
 10
182.814804500001
 20
-96.3766050000004
 10
184.1158045
 20
-97.67760500000001
 10
184.1158045
 20
-109.075605000001
 10
182.814804500001
 20
-110.376605
  0
LWPOLYLINE
  5
62
100
AcDbEntity
  8
0
  6
ByLayer
 62
  256
370
   -1
100
AcDbPolyline
 90
    8
 70
    1
 43
0
 10
199.3918045
 20
-115.426605000002
 10
211.3898045
 20
-115.426605000002
 10
212.690804499999
 20
-116.727605000001
 10
212.690804499999
 20
-128.125605
 10
211.389804499999
 20
-129.426605000002
 10
199.3918045
 20
-129.426605000002
 10
198.0908045
 20
-128.125605
 10
198.0908045
 20
-116.727605000001
  0
LWPOLYLINE
  5
63
100
AcDbEntity
  8
0
  6
ByLayer
 62
  256
370
   -1
100
AcDbPolyline
 90
    8
 70
    1
 43
0
 10
203.165804499999
 20
-109.075605000001
 10
201.8648045
 20
-110.376605
 10
189.8668045
 20
-110.376605
 10
188.565804499999
 20
-109.075605000001
 10
188.565804499999
 20
-97.67760500000001
 10
189.8668045
 20
-96.3766050000004
 10
201.8648045
 20
-96.3766050000004
 10
203.165804499999
 20
-97.67760499999991
  0
LWPOLYLINE
  5
64
100
AcDbEntity
  8
0
  6
ByLayer
 62
  256
370
   -1
100
AcDbPolyline
 90
    8
 70
    1
 43
0
 10
180.341804500001
 20
-115.426605000002
 10
192.3398045
 20
-115.426605000002
 10
193.6408045
 20
-116.727605000001
 10
193.6408045
 20
-128.125605
 10
192.3398045
 20
-129.426605000002
 10
180.341804500001
 20
-129.426605000002
 10
179.040804499999
 20
-128.125605
 10
179.040804499999
 20
-116.727605000001
  0
LWPOLYLINE
  5
65
100
AcDbEntity
  8
0
  6
ByLayer
 62
  256
370
   -1
100
AcDbPolyline
 90
    8
 70
    1
 43
0
 10
184.883283938526
 20
-134.523625561474
 10
206.851304499999
 20
-134.606105
 10
207.359304500001
 20
-135.114105000002
 10
207.359304500001
 20
-147.839105
 10
206.851304499999
 20
-148.347105
 10
184.883283938526
 20
-148.264625561474
 10
184.375283938527
 20
-147.756625561474
 10
184.375283938527
 20
-135.031625561475
  0
CIRCLE
  5
66
100
AcDbEntity
  8
0
  6
ByLayer
 62
  256
370
   -1
100
AcDbCircle
 10
205.4343045
 20
-154.470105
 40
1.49999999999999
  0
LWPOLYLINE
  5
67
100
AcDbEntity
  8
0
  6
ByLayer
 62
  256
370
   -1
100
AcDbPolyline
 90
    8
 70
    1
 43
0
 10
169.8283045
 20
-70.9756050000006
 10
168.5273045
 20
-72.276605
 10
156.529304499999
 20
-72.276605
 10
155.228304499999
 20
-70.9756050000006
 10
155.228304499999
 20
-59.57760500000131
 10
156.529304499999
 20
-58.276605
 10
168.5273045
 20
-58.276605
 10
169.8283045
 20
-59.57760500000131
  0
LWPOLYLINE
  5
68
100
AcDbEntity
  8
0
  6
ByLayer
 62
  256
370
   -1
100
AcDbPolyline
 90
    8
 70
    1
 43
0
 10
166.0543045
 20
-77.32660500000109
 10
178.0523045
 20
-77.32660500000109
 10
179.353304499999
 20
-78.62760500000061
 10
179.353304499999
 20
-90.0256049999998
 10
178.0523045
 20
-91.32660500000111
 10
166.0543045
 20
-91.32660500000111
 10
164.753304499999
 20
-90.0256049999998
 10
164.753304499999
 20
-78.62760500000061
  0
LWPOLYLINE
  5
69
100
AcDbEntity
  8
0
  6
ByLayer
 62
  256
370
   -1
100
AcDbPolyline
 90
    8
 70
    1
 43
0
 10
245.7173045
 20
-47.1631050000007
 10
245.7173045
 20
-35.7651050000013
 10
247.0183045
 20
-34.464105
 10
259.016304499999
 20
-34.464105
 10
260.317304499999
 20
-35.7651050000013
 10
260.317304499999
 20
-47.1631050000007
 10
259.016304499999
 20
-48.46410500000011
 10
247.0183045
 20
-48.46410500000011
  0
LWPOLYLINE
  5
6A
100
AcDbEntity
  8
0
  6
ByLayer
 62
  256
370
   -1
100
AcDbPolyline
 90
    8
 70
    1
 43
0
 10
312.3908045000001
 20
-90.0256049999999
 10
312.3908045000001
 20
-78.6276050000007
 10
313.691804499999
 20
-77.32660500000109
 10
325.6898045000011
 20
-77.32660500000119
 10
326.9908045
 20
-78.6276050000007
 10
326.9908045
 20
-90.0256049999998
 10
325.6898045000011
 20
-91.32660500000111
 10
313.691804499999
 20
-91.32660500000111
  0
LWPOLYLINE
  5
6B
100
AcDbEntity
  8
0
  6
ByLayer
 62
  256
370
   -1
100
AcDbPolyline
 90
    8
 70
    1
 43
0
 10
241.2673045
 20
-35.7651050000013
 10
241.2673045
 20
-47.1631050000007
 10
239.9663045
 20
-48.46410500000011
 10
227.968304500001
 20
-48.46410500000011
 10
226.667304499999
 20
-47.1631050000007
 10
226.667304499999
 20
-35.7651050000013
 10
227.968304500001
 20
-34.464105
 10
239.9663045
 20
-34.464105
  0
LWPOLYLINE
  5
6C
100
AcDbEntity
  8
0
  6
ByLayer
 62
  256
370
   -1
100
AcDbPolyline
 90
    8
 70
    1
 43
0
 10
220.916304499999
 20
-34.464105
 10
222.217304500001
 20
-35.7651050000013
 10
222.217304500001
 20
-47.1631050000007
 10
220.916304499999
 20
-48.46410500000011
 10
208.918304499999
 20
-48.46410500000011
 10
207.6173045
 20
-47.1631050000007
 10
207.6173045
 20
-35.7651050000013
 10
208.918304499999
 20
-34.464105
  0
LWPOLYLINE
  5
6D
100
AcDbEntity
  8
0
  6
ByLayer
 62
  256
370
   -1
100
AcDbPolyline
 90
    8
 70
    1
 43
0
 10
144.7148045
 20
-96.3766050000004
 10
146.0158045
 20
-97.67760500000001
 10
146.0158045
 20
-109.075605000001
 10
144.7148045
 20
-110.376605
 10
132.716804499999
 20
-110.376605
 10
131.415804499999
 20
-109.075605000001
 10
131.415804499999
 20
-97.67760500000001
 10
132.716804499999
 20
-96.3766050000004
  0
LWPOLYLINE
  5
6E
100
AcDbEntity
  8
0
  6
ByLayer
 62
  256
370
   -1
100
AcDbPolyline
 90
    8
 70
    1
 43
0
 10
165.065804499999
 20
-109.075605000001
 10
163.7648045
 20
-110.376605
 10
151.7668045
 20
-110.376605
 10
150.465804500001
 20
-109.075605000001
 10
150.465804500001
 20
-97.67760500000001
 10
151.7668045
 20
-96.3766050000004
 10
163.7648045
 20
-96.3766050000004
 10
165.065804499999
 20
-97.67760500000001
  0
LWPOLYLINE
  5
6F
100
AcDbEntity
  8
0
  6
ByLayer
 62
  256
370
   -1
100
AcDbPolyline
 90
    8
 70
    1
 43
0
 10
140.940804499999
 20
-116.727605000001
 10
142.2418045
 20
-115.426605000002
 10
154.2398045
 20
-115.426605000002
 10
155.540804499999
 20
-116.727605000001
 10
155.540804499999
 20
-128.125605
 10
154.2398045
 20
-129.426605000002
 10
142.2418045
 20
-129.426605000002
 10
140.940804499999
 20
-128.125605
  0
LWPOLYLINE
  5
70
100
AcDbEntity
  8
0
  6
ByLayer
 62
  256
370
   -1
100
AcDbPolyline
 90
    8
 70
    1
 43
0
 10
135.189804500001
 20
-115.426605000002
 10
136.4908045
 20
-116.727605000001
 10
136.4908045
 20
-128.125605
 10
135.189804500001
 20
-129.426605000002
 10
123.191804499999
 20
-129.426605000002
 10
121.8908045
 20
-128.125605
 10
121.8908045
 20
-116.727605000001
 10
123.191804499999
 20
-115.426605000002
  0
LWPOLYLINE
  5
71
100
AcDbEntity
  8
0
  6
ByLayer
 62
  256
370
   -1
100
AcDbPolyline
 90
    8
 70
    1
 43
0
 10
159.002304500001
 20
-91.32660500000111
 10
147.004304499999
 20
-91.32660500000111
 10
145.7033045
 20
-90.0256049999998
 10
145.7033045
 20
-78.62760500000061
 10
147.004304499999
 20
-77.32660500000109
 10
159.002304500001
 20
-77.32660500000109
 10
160.3033045
 20
-78.62760500000061
 10
160.3033045
 20
-90.0256049999998
  0
LWPOLYLINE
  5
72
100
AcDbEntity
  8
0
  6
ByLayer
 62
  256
370
   -1
100
AcDbPolyline
 90
    8
 70
    1
 43
0
 10
346.0408045
 20
-78.6276050000007
 10
346.0408045
 20
-90.0256049999998
 10
344.7398045
 20
-91.32660500000111
 10
332.7418045000001
 20
-91.32660500000111
 10
331.440804499999
 20
-90.0256049999999
 10
331.440804499999
 20
-78.6276050000007
 10
332.7418045000001
 20
-77.32660500000109
 10
344.7398045
 20
-77.32660500000119
  0
LWPOLYLINE
  5
73
100
AcDbEntity
  8
0
  6
ByLayer
 62
  256
370
   -1
100
AcDbPolyline
 90
    8
 70
    1
 43
0
 10
307.940804499999
 20
-78.6276050000007
 10
307.940804499999
 20
-90.0256049999999
 10
306.6398045
 20
-91.32660500000111
 10
294.6418045
 20
-91.32660500000111
 10
293.3408045
 20
-90.0256049999999
 10
293.3408045
 20
-78.6276050000007
 10
294.6418045
 20
-77.32660500000109
 10
306.6398045
 20
-77.32660500000119
  0
LWPOLYLINE
  5
74
100
AcDbEntity
  8
0
  6
ByLayer
 62
  256
370
   -1
100
AcDbPolyline
 90
    8
 70
    1
 43
0
 10
306.6398045
 20
-148.476605000001
 10
294.6418045
 20
-148.476605000001
 10
293.3408045
 20
-147.175605000001
 10
293.3408045
 20
-135.777605
 10
294.6418045
 20
-134.476605000001
 10
306.6398045
 20
-134.476605000001
 10
307.940804499999
 20
-135.777605
 10
307.940804499999
 20
-147.175605000001
  0
LWPOLYLINE
  5
75
100
AcDbEntity
  8
0
  6
ByLayer
 62
  256
370
   -1
100
AcDbPolyline
 90
    8
 70
    1
 43
0
 10
306.6398045
 20
-48.46410500000011
 10
294.6418045
 20
-48.46410500000011
 10
293.3408045
 20
-47.1631050000007
 10
293.3408045
 20
-35.7651050000013
 10
294.6418045
 20
-34.464105
 10
306.6398045
 20
-34.464105
 10
307.940804499999
 20
-35.7651050000013
 10
307.940804499999
 20
-47.1631050000007
  0
LWPOLYLINE
  5
76
100
AcDbEntity
  8
0
  6
ByLayer
 62
  256
370
   -1
100
AcDbPolyline
 90
    8
 70
    1
 43
0
 10
75.56680449999929
 20
-96.3766050000004
 10
87.5648045000007
 20
-96.3766050000004
 10
88.8658045000001
 20
-97.67760499999991
 10
88.8658045000001
 20
-109.075605000001
 10
87.5648045000007
 20
-110.376605
 10
75.56680449999929
 20
-110.376605
 10
74.2658044999998
 20
-109.075605000001
 10
74.2658044999998
 20
-97.67760499999991
  0
LWPOLYLINE
  5
77
100
AcDbEntity
  8
0
  6
ByLayer
 62
  256
370
   -1
100
AcDbPolyline
 90
    8
 70
    1
 43
0
 10
126.9658045
 20
-97.67760499999991
 10
126.965804500001
 20
-109.075605000001
 10
125.664804499999
 20
-110.376605
 10
113.6668045
 20
-110.376605
 10
112.3658045
 20
-109.075605000001
 10
112.3658045
 20
-97.67760499999991
 10
113.6668045
 20
-96.3766050000004
 10
125.664804499999
 20
-96.3766050000004
  0
LWPOLYLINE
  5
78
100
AcDbEntity
  8
0
  6
ByLayer
 62
  256
370
   -1
100
AcDbPolyline
 90
    8
 70
    1
 43
0
 10
278.064804499999
 20
-148.476605000001
 10
266.066804499999
 20
-148.476605000001
 10
264.7658045
 20
-147.175605000001
 10
264.7658045
 20
-135.777605
 10
266.066804499999
 20
-134.476605000001
 10
278.064804499999
 20
-134.476605000001
 10
279.3658045
 20
-135.777605
 10
279.3658045
 20
-147.175605000001
  0
LWPOLYLINE
  5
79
100
AcDbEntity
  8
0
  6
ByLayer
 62
  256
370
   -1
100
AcDbPolyline
 90
    8
 70
    1
 43
0
 10
294.6418045
 20
-111.676605000002
 10
294.6418045
 20
-95.07660500000111
 42
-0.4142135623730838
 10
295.3918045
 20
-94.32660500000111
 10
343.9898045
 20
-94.32660500000108
 42
-0.4142135623731005
 10
344.7398045
 20
-95.07660500000111
 10
344.7398044999999
 20
-111.676605000002
 42
-0.4142135623730841
 10
343.9898045
 20
-112.426605000002
 10
295.3918045
 20
-112.426605000002
 42
-0.4142135623730837
  0
LWPOLYLINE
  5
7A
100
AcDbEntity
  8
0
  6
ByLayer
 62
  256
370
   -1
100
AcDbPolyline
 90
    8
 70
    1
 43
0
 10
183.8033045
 20
-90.0256049999998
 10
183.8033045
 20
-78.62760500000061
 10
185.1043045
 20
-77.32660500000109
 10
197.102304499999
 20
-77.32660500000109
 10
198.4033045
 20
-78.62760500000061
 10
198.4033045
 20
-90.0256049999998
 10
197.102304499999
 20
-91.32660500000111
 10
185.1043045
 20
-91.32660500000111
  0
LWPOLYLINE
  5
7B
100
AcDbEntity
  8
0
  6
ByLayer
 62
  256
370
   -1
100
AcDbPolyline
 90
    8
 70
    1
 43
0
 10
122.2033045
 20
-78.62760500000061
 10
122.2033045
 20
-90.0256049999998
 10
120.9023045
 20
-91.32660500000111
 10
108.904304500001
 20
-91.32660500000111
 10
107.603304499999
 20
-90.0256049999998
 10
107.603304499999
 20
-78.62760500000061
 10
108.904304500001
 20
-77.32660500000109
 10
120.9023045
 20
-77.32660500000109
  0
LWPOLYLINE
  5
7C
100
AcDbEntity
  8
0
  6
ByLayer
 62
  256
370
   -1
100
AcDbPolyline
 90
    8
 70
    1
 43
0
 10
103.1533045
 20
-78.62760500000061
 10
103.1533045
 20
-90.0256049999998
 10
101.852304499999
 20
-91.32660500000111
 10
89.8543044999996
 20
-91.32660500000111
 10
88.5533045000001
 20
-90.0256049999998
 10
88.5533045000001
 20
-78.62760500000061
 10
89.8543044999996
 20
-77.32660500000109
 10
101.852304499999
 20
-77.32660500000109
  0
LWPOLYLINE
  5
7D
100
AcDbEntity
  8
0
  6
ByLayer
 62
  256
370
   -1
100
AcDbPolyline
 90
    8
 70
    1
 43
0
 10
294.6418045
 20
-58.276605
 10
306.6398045
 20
-58.276605
 10
307.940804499999
 20
-59.57760500000131
 10
307.940804499999
 20
-70.9756050000006
 10
306.6398045
 20
-72.2766050000001
 10
294.6418045
 20
-72.2766050000001
 10
293.3408045
 20
-70.9756050000006
 10
293.3408045
 20
-59.57760500000131
  0
LWPOLYLINE
  5
7E
100
AcDbEntity
  8
0
  6
ByLayer
 62
  256
370
   -1
100
AcDbPolyline
 90
    8
 70
    1
 43
0
 10
179.3543045
 20
-35.7651050000013
 10
179.3543045
 20
-47.1631050000007
 10
178.053304499999
 20
-48.46410500000011
 10
166.0553045
 20
-48.46410500000001
 10
164.7543045
 20
-47.1631050000006
 10
164.7543045
 20
-35.7651050000012
 10
166.0553045
 20
-34.464105
 10
178.053304499999
 20
-34.464105
  0
LWPOLYLINE
  5
7F
100
AcDbEntity
  8
0
  6
ByLayer
 62
  256
370
   -1
100
AcDbPolyline
 90
    8
 70
    1
 43
0
 10
55.21580450000051
 20
-109.075605000001
 10
55.21580450000051
 20
-97.67760499999991
 10
56.51680450000001
 20
-96.3766050000004
 10
68.5148044999996
 20
-96.3766050000004
 10
69.815804499999
 20
-97.67760499999991
 10
69.815804499999
 20
-109.075605000001
 10
68.5148044999997
 20
-110.376605
 10
56.51680450000001
 20
-110.376605
  0
LWPOLYLINE
  5
80
100
AcDbEntity
  8
0
  6
ByLayer
 62
  256
370
   -1
100
AcDbPolyline
 90
    8
 70
    1
 43
0
 10
50.7658044999998
 20
-97.67760499999991
 10
50.7658044999998
 20
-109.075605000001
 10
49.46480450000031
 20
-110.376605
 10
37.4668044999989
 20
-110.376605
 10
36.1658044999994
 20
-109.075605000001
 10
36.1658044999994
 20
-97.67760499999991
 10
37.4668044999989
 20
-96.3766050000004
 10
49.46480450000031
 20
-96.3766050000004
  0
LWPOLYLINE
  5
81
100
AcDbEntity
  8
0
  6
ByLayer
 62
  256
370
   -1
100
AcDbPolyline
 90
    8
 70
    1
 43
0
 10
206.627304500001
 20
-58.276605
 10
207.9283045
 20
-59.57760500000131
 10
207.9283045
 20
-70.9756050000006
 10
206.627304500001
 20
-72.276605
 10
194.629304499999
 20
-72.276605
 10
193.3283045
 20
-70.9756050000006
 10
193.3283045
 20
-59.57760500000131
 10
194.629304499999
 20
-58.276605
  0
CIRCLE
  5
82
100
AcDbEntity
  8
0
  6
ByLayer
 62
  256
370
   -1
100
AcDbCircle
 10
212.434305
 20
-28.4706049999999
 40
1.49999999999999
  0
LWPOLYLINE
  5
83
100
AcDbEntity
  8
0
  6
ByLayer
 62
  256
370
   -1
100
AcDbPolyline
 90
    8
 70
    1
 43
0
 10
188.567304499999
 20
-47.1631050000007
 10
188.567304499999
 20
-35.7651050000013
 10
189.8683045
 20
-34.464105
 10
201.8663045
 20
-34.464105
 10
203.167304499999
 20
-35.7651050000013
 10
203.167304499999
 20
-47.1631050000007
 10
201.8663045
 20
-48.46410500000011
 10
189.8683045
 20
-48.46410500000011
  0
LWPOLYLINE
  5
84
100
AcDbEntity
  8
0
  6
ByLayer
 62
  256
370
   -1
100
AcDbPolyline
 90
    8
 70
    1
 43
0
 10
65.0533045000001
 20
-78.62760500000061
 10
65.0533045000001
 20
-90.0256049999998
 10
63.7523045000007
 20
-91.32660500000111
 10
51.7543044999993
 20
-91.32660500000111
 10
50.4533044999998
 20
-90.0256049999998
 10
50.4533044999998
 20
-78.62760500000061
 10
51.7543044999993
 20
-77.32660500000109
 10
63.7523045000007
 20
-77.32660500000109
  0
LWPOLYLINE
  5
85
100
AcDbEntity
  8
0
  6
ByLayer
 62
  256
370
   -1
100
AcDbPolyline
 90
    8
 70
    1
 43
0
 10
174.2783045
 20
-70.9756050000006
 10
174.2783045
 20
-59.57760500000131
 10
175.5793045
 20
-58.276605
 10
187.5773045
 20
-58.276605
 10
188.878304499999
 20
-59.57760500000131
 10
188.878304499999
 20
-70.9756050000006
 10
187.5773045
 20
-72.276605
 10
175.5793045
 20
-72.276605
  0
LWPOLYLINE
  5
86
100
AcDbEntity
  8
0
  6
ByLayer
 62
  256
370
   -1
100
AcDbPolyline
 90
    8
 70
    1
 43
0
 10
270.8313045
 20
-48.46410500000011
 10
269.530304500001
 20
-47.1631050000007
 10
269.530304500001
 20
-35.7651050000013
 10
270.8313045
 20
-34.464105
 10
282.829304499999
 20
-34.464105
 10
284.130304499999
 20
-35.7651050000013
 10
284.130304499999
 20
-47.1631050000007
 10
282.829304499999
 20
-48.46410500000011
  0
LWPOLYLINE
  5
87
100
AcDbEntity
  8
0
  6
ByLayer
 62
  256
370
   -1
100
AcDbPolyline
 90
    8
 70
    1
 43
0
 10
22.1908044999991
 20
-78.62760500000061
 10
22.1908044999991
 20
-90.0256049999998
 10
20.8898044999996
 20
-91.32660500000111
 10
8.89180449999998
 20
-91.32660500000111
 10
7.59080450000056
 20
-90.0256049999998
 10
7.59080450000056
 20
-78.62760500000061
 10
8.89180449999998
 20
-77.32660500000109
 10
20.8898044999996
 20
-77.32660500000109
  0
CIRCLE
  5
88
100
AcDbEntity
  8
0
  6
ByLayer
 62
  256
370
   -1
100
AcDbCircle
 10
274.434305
 20
-154.470105
 40
1.50000000000002
  0
LWPOLYLINE
  5
89
100
AcDbEntity
  8
0
  6
ByLayer
 62
  256
370
   -1
100
AcDbPolyline
 90
    8
 70
    1
 43
0
 10
66.0418044999996
 20
-115.426605000002
 10
78.03980449999921
 20
-115.426605000002
 10
79.3408045000005
 20
-116.727605000001
 10
79.3408045000005
 20
-128.125605
 10
78.03980449999931
 20
-129.426605000002
 10
66.0418044999996
 20
-129.426605000002
 10
64.7408045000001
 20
-128.125605
 10
64.7408045000001
 20
-116.727605000001
  0
LWPOLYLINE
  5
8A
100
AcDbEntity
  8
0
  6
ByLayer
 62
  256
370
   -1
100
AcDbPolyline
 90
    8
 70
    1
 43
0
 10
46.0033044999991
 20
-90.0256049999998
 10
44.7023044999996
 20
-91.32660500000111
 10
32.7043045
 20
-91.32660500000111
 10
31.4033045000005
 20
-90.0256049999998
 10
31.4033045000005
 20
-78.62760500000061
 10
32.7043045
 20
-77.32660500000109
 10
44.7023044999996
 20
-77.32660500000109
 10
46.0033044999991
 20
-78.62760500000061
  0
LWPOLYLINE
  5
8B
100
AcDbEntity
  8
0
  6
ByLayer
 62
  256
370
   -1
100
AcDbPolyline
 90
    8
 70
    1
 43
0
 10
325.6898045000011
 20
-115.426605000002
 10
326.9908045
 20
-116.727605000001
 10
326.9908045
 20
-128.125605
 10
325.6898045000011
 20
-129.426605000002
 10
313.691804499999
 20
-129.426605000002
 10
312.3908045000001
 20
-128.125605
 10
312.3908045000001
 20
-116.727605000001
 10
313.691804499999
 20
-115.426605000002
  0
CIRCLE
  5
8C
100
AcDbEntity
  8
0
  6
ByLayer
 62
  256
370
   -1
100
AcDbCircle
 10
143.434181780043
 20
-154.470105
 40
1.5
  0
LWPOLYLINE
  5
8D
100
AcDbEntity
  8
0
  6
ByLayer
 62
  256
370
   -1
100
AcDbPolyline
 90
    8
 70
    1
 43
0
 10
22.1908044999991
 20
-135.777605
 10
22.1908044999991
 20
-147.175605000001
 10
20.8898044999995
 20
-148.476605000001
 10
8.891804499999942
 20
-148.476605000001
 10
7.590804500000521
 20
-147.175605000001
 10
7.590804500000521
 20
-135.777605
 10
8.891804499999941
 20
-134.476605000001
 10
20.8898044999995
 20
-134.476605000001
  0
LWPOLYLINE
  5
8E
100
AcDbEntity
  8
0
  6
ByLayer
 62
  256
370
   -1
100
AcDbPolyline
 90
    8
 70
    1
 43
0
 10
126.6543045
 20
-35.7651050000012
 10
127.955304499999
 20
-34.464105
 10
139.953304500001
 20
-34.464105
 10
141.2543045
 20
-35.7651050000012
 10
141.2543045
 20
-47.1631050000006
 10
139.953304500001
 20
-48.46410500000001
 10
127.955304499999
 20
-48.46410500000001
 10
126.6543045
 20
-47.1631050000006
  0
LWPOLYLINE
  5
8F
100
AcDbEntity
  8
0
  6
ByLayer
 62
  256
370
   -1
100
AcDbPolyline
 90
    8
 70
    1
 43
0
 10
26.6413045000002
 20
-35.7651050000012
 10
27.9423044999997
 20
-34.464105
 10
39.9403044999993
 20
-34.464105
 10
41.24130450000051
 20
-35.7651050000012
 10
41.24130450000051
 20
-47.1631050000006
 10
39.9403044999992
 20
-48.46410500000001
 10
27.9423044999997
 20
-48.46410500000001
 10
26.6413045000002
 20
-47.1631050000006
  0
LWPOLYLINE
  5
90
100
AcDbEntity
  8
0
  6
ByLayer
 62
  256
370
   -1
100
AcDbPolyline
 90
    8
 70
    1
 43
0
 10
111.377304500001
 20
-58.276605
 10
112.6783045
 20
-59.57760500000131
 10
112.6783045
 20
-70.9756050000006
 10
111.377304500001
 20
-72.276605
 10
99.37930449999931
 20
-72.276605
 10
98.07830449999982
 20
-70.9756050000006
 10
98.07830449999982
 20
-59.57760500000131
 10
99.37930449999931
 20
-58.276605
  0
LWPOLYLINE
  5
91
100
AcDbEntity
  8
0
  6
ByLayer
 62
  256
370
   -1
100
AcDbPolyline
 90
    8
 70
    1
 43
0
 10
32.16929149999909
 20
-101.276598000001
 42
0.4142156126363379
 10
31.1692945000376
 20
-100.276608000026
 10
29.5693015000006
 20
-100.2766080000008
 42
0.414218541589893
 10
28.5693014999732
 20
-101.276604999909
 10
28.5693015000006
 20
-105.476598
 42
0.414217370025511
 10
29.56929449999
 20
-106.476598000044
 10
31.1693014999991
 20
-106.4765980000499
 42
0.4142144410556304
 10
32.1692945000004
 20
-105.476605000012
  0
LWPOLYLINE
  5
92
100
AcDbEntity
  8
0
  6
ByLayer
 62
  256
370
   -1
100
AcDbPolyline
 90
    8
 70
    1
 43
0
 10
85.09230449999932
 20
-34.464105
 10
97.0903045000008
 20
-34.464105
 10
98.39130450000012
 20
-35.7651050000012
 10
98.39130450000012
 20
-47.1631050000006
 10
97.0903045000008
 20
-48.46410500000001
 10
85.09230449999932
 20
-48.46410500000001
 10
83.7913044999998
 20
-47.1631050000006
 10
83.7913044999998
 20
-35.7651050000012
  0
LWPOLYLINE
  5
93
100
AcDbEntity
  8
0
  6
ByLayer
 62
  256
370
   -1
100
AcDbPolyline
 90
    8
 70
    1
 43
0
 10
31.4033045000007
 20
-147.175605
 10
31.4033045000007
 20
-135.777604999999
 10
32.7043045000002
 20
-134.476605
 10
44.7023044999998
 20
-134.476605
 10
46.0033044999992
 20
-135.777604999999
 10
46.0033044999992
 20
-147.175605
 10
44.7023044999998
 20
-148.476605
 10
32.7043045000002
 20
-148.476605
  0
LWPOLYLINE
  5
94
100
AcDbEntity
  8
0
  6
ByLayer
 62
  256
370
   -1
100
AcDbPolyline
 90
    8
 70
    1
 43
0
 10
24.5720544999994
 20
-109.075605000001
 10
23.27105450000001
 20
-110.376605
 10
6.510554500000372
 20
-110.376605
 10
5.20955449999907
 20
-109.075605000001
 10
5.20955449999907
 20
-97.67760499999991
 10
6.510554500000371
 20
-96.3766050000004
 10
23.27105450000001
 20
-96.3766050000004
 10
24.5720544999994
 20
-97.67760499999991
  0
LWPOLYLINE
  5
95
100
AcDbEntity
  8
0
  6
ByLayer
 62
  256
370
   -1
100
AcDbPolyline
 90
    8
 70
    1
 43
0
 10
107.604304500001
 20
-35.7651050000012
 10
108.9053045
 20
-34.464105
 10
120.9033045
 20
-34.464105
 10
122.204304499999
 20
-35.7651050000012
 10
122.204304499999
 20
-47.1631050000006
 10
120.9033045
 20
-48.46410500000001
 10
108.9053045
 20
-48.46410500000001
 10
107.604304500001
 20
-47.1631050000006
  0
LWPOLYLINE
  5
96
100
AcDbEntity
  8
0
  6
ByLayer
 62
  256
370
   -1
100
AcDbPolyline
 90
    8
 70
    1
 43
0
 10
58.9903045000003
 20
-48.46410500000001
 10
46.9923045000007
 20
-48.46410500000001
 10
45.6913044999994
 20
-47.1631050000006
 10
45.6913044999994
 20
-35.7651050000012
 10
46.9923045000007
 20
-34.464105
 10
58.9903045000003
 20
-34.464105
 10
60.2913044999998
 20
-35.7651050000012
 10
60.2913044999998
 20
-47.1631050000006
  0
LWPOLYLINE
  5
97
100
AcDbEntity
  8
0
  6
ByLayer
 62
  256
370
   -1
100
AcDbPolyline
 90
    8
 70
    1
 43
0
 10
79.3413044999991
 20
-35.7651050000012
 10
79.3413044999991
 20
-47.1631050000006
 10
78.04030449999961
 20
-48.46410500000001
 10
66.0423045
 20
-48.46410500000001
 10
64.7413045000005
 20
-47.1631050000006
 10
64.7413045000005
 20
-35.7651050000012
 10
66.0423045
 20
-34.464105
 10
78.04030449999961
 20
-34.464105
  0
LWPOLYLINE
  5
98
100
AcDbEntity
  8
0
  6
ByLayer
 62
  256
370
   -1
100
AcDbPolyline
 90
    8
 70
    1
 43
0
 10
17.4283045000001
 20
-47.1631050000006
 10
16.1273045000007
 20
-48.46410500000001
 10
4.12930449999926
 20
-48.46410500000001
 10
2.82830449999977
 20
-47.1631050000006
 10
2.82830449999977
 20
-35.7651050000012
 10
4.12930449999926
 20
-34.4641049999999
 10
16.1273045000007
 20
-34.4641049999999
 10
17.4283045000001
 20
-35.7651050000012
  0
CIRCLE
  5
99
100
AcDbEntity
  8
0
  6
ByLayer
 62
  256
370
   -1
100
AcDbCircle
 10
16.433805
 20
-28.470605
 40
1.5
  0
LWPOLYLINE
  5
9A
100
AcDbEntity
  8
0
  6
ByLayer
 62
  256
370
   -1
100
AcDbPolyline
 90
    6
 70
    1
 43
0
 10
38.0345544999991
 20
-127.694605000002
 10
35.0345544999991
 20
-129.426605000002
 10
9.034554499999071
 20
-129.426605000002
 10
6.03455449999903
 20
-127.694605000002
 10
6.03455449999903
 20
-115.426605000002
 10
38.0345544999991
 20
-115.426605000002
  0
CIRCLE
  5
9B
100
AcDbEntity
  8
0
  6
ByLayer
 62
  256
370
   -1
100
AcDbCircle
 10
16.4338049999998
 20
-154.470105
 40
1.50000000000001
  0
LWPOLYLINE
  5
9C
100
AcDbEntity
  8
0
  6
ByLayer
 62
  256
370
   -1
100
AcDbPolyline
 90
    8
 70
    1
 43
0
 10
137.4793045
 20
-134.476605000001
 10
149.477304499999
 20
-134.476605000001
 10
150.7783045
 20
-135.777605
 10
150.778304500001
 20
-147.175605000001
 10
149.477304499999
 20
-148.476605000001
 10
137.4793045
 20
-148.476605000001
 10
136.1783045
 20
-147.175605000001
 10
136.1783045
 20
-135.777605
  0
LWPOLYLINE
  5
9D
100
AcDbEntity
  8
0
  6
ByLayer
 62
  256
370
   -1
100
AcDbPolyline
 90
    8
 70
    1
 43
0
 10
149.477304499999
 20
-72.276605
 10
137.4793045
 20
-72.276605
 10
136.1783045
 20
-70.9756050000006
 10
136.1783045
 20
-59.57760500000131
 10
137.4793045
 20
-58.276605
 10
149.477304499999
 20
-58.276605
 10
150.778304500001
 20
-59.57760500000131
 10
150.778304500001
 20
-70.9756050000006
  0
LWPOLYLINE
  5
9E
100
AcDbEntity
  8
0
  6
ByLayer
 62
  256
370
   -1
100
AcDbPolyline
 90
    8
 70
    1
 43
0
 10
46.9918045000004
 20
-115.426605000002
 10
58.9898044999999
 20
-115.426605000002
 10
60.29080449999941
 20
-116.727605000001
 10
60.29080449999941
 20
-128.125605
 10
58.9898044999999
 20
-129.426605000002
 10
46.9918045000004
 20
-129.426605000002
 10
45.6908044999991
 20
-128.125605
 10
45.6908044999991
 20
-116.727605000001
  0
LWPOLYLINE
  5
9F
100
AcDbEntity
  8
0
  6
ByLayer
 62
  256
370
   -1
100
AcDbPolyline
 90
    8
 70
    1
 43
0
 10
346.0408045
 20
-70.9756050000006
 10
344.7398045
 20
-72.2766050000001
 10
332.7418045000001
 20
-72.2766050000001
 10
331.440804499999
 20
-70.9756050000006
 10
331.440804499999
 20
-59.57760500000131
 10
332.7418045000001
 20
-58.276605
 10
344.7398045
 20
-58.276605
 10
346.0408045
 20
-59.57760500000131
  0
LWPOLYLINE
  5
A0
100
AcDbEntity
  8
0
  6
ByLayer
 62
  256
370
   -1
100
AcDbPolyline
 90
    8
 70
    1
 43
0
 10
332.7418045000001
 20
-34.464105
 10
344.7398045
 20
-34.464105
 10
346.0408045
 20
-35.7651050000013
 10
346.0408045
 20
-47.1631050000007
 10
344.7398045
 20
-48.46410500000011
 10
332.7418045000001
 20
-48.46410500000011
 10
331.440804499999
 20
-47.1631050000007
 10
331.440804499999
 20
-35.7651050000013
  0
LWPOLYLINE
  5
A1
100
AcDbEntity
  8
0
  6
ByLayer
 62
  256
370
   -1
100
AcDbPolyline
 90
    8
 70
    1
 43
0
 10
83.7908044999994
 20
-128.125605
 10
83.7908044999994
 20
-116.727605000001
 10
85.09180450000072
 20
-115.426605000002
 10
97.0898045000003
 20
-115.426605000002
 10
98.39080449999982
 20
-116.727605000001
 10
98.39080449999982
 20
-128.125605
 10
97.0898045000003
 20
-129.426605000002
 10
85.09180450000072
 20
-129.426605000002
  0
LWPOLYLINE
  5
A2
100
AcDbEntity
  8
0
  6
ByLayer
 62
  256
370
   -1
100
AcDbPolyline
 90
    8
 70
    1
 43
0
 10
131.728304499999
 20
-70.9756050000006
 10
130.4273045
 20
-72.276605
 10
118.4293045
 20
-72.276605
 10
117.128304499999
 20
-70.9756050000006
 10
117.128304499999
 20
-59.57760500000131
 10
118.4293045
 20
-58.276605
 10
130.4273045
 20
-58.276605
 10
131.728304499999
 20
-59.57760500000131
  0
LWPOLYLINE
  5
A3
100
AcDbEntity
  8
0
  6
ByLayer
 62
  256
370
   -1
100
AcDbPolyline
 90
    8
 70
    1
 43
0
 10
325.6898045000011
 20
-58.276605
 10
326.9908045
 20
-59.57760500000131
 10
326.9908045
 20
-70.9756050000006
 10
325.6898045000011
 20
-72.2766050000001
 10
313.691804499999
 20
-72.2766050000001
 10
312.3908045000001
 20
-70.9756050000006
 10
312.3908045000001
 20
-59.57760500000131
 10
313.691804499999
 20
-58.276605
  0
CIRCLE
  5
A4
100
AcDbEntity
  8
0
  6
ByLayer
 62
  256
370
   -1
100
AcDbCircle
 10
274.434305
 20
-28.470605
 40
1.49999999999999
  0
LWPOLYLINE
  5
A5
100
AcDbEntity
  8
0
  6
ByLayer
 62
  256
370
   -1
100
AcDbPolyline
 90
    8
 70
    1
 43
0
 10
102.8408045
 20
-128.125605
 10
102.8408045
 20
-116.727605000001
 10
104.1418045
 20
-115.426605000002
 10
116.1398045
 20
-115.426605000002
 10
117.440804499999
 20
-116.727605000001
 10
117.440804499999
 20
-128.125605
 10
116.1398045
 20
-129.426605000002
 10
104.1418045
 20
-129.426605000002
  0
LWPOLYLINE
  5
A6
100
AcDbEntity
  8
0
  6
ByLayer
 62
  256
370
   -1
100
AcDbPolyline
 90
    8
 70
    1
 43
0
 10
106.6148045
 20
-96.3766050000004
 10
107.915804499999
 20
-97.67760499999991
 10
107.915804499999
 20
-109.075605000001
 10
106.6148045
 20
-110.376605
 10
94.6168045000003
 20
-110.376605
 10
93.31580449999902
 20
-109.075605000001
 10
93.31580449999902
 20
-97.67760499999991
 10
94.6168045000003
 20
-96.3766050000004
  0
LWPOLYLINE
  5
A7
100
AcDbEntity
  8
0
  6
ByLayer
 62
  256
370
   -1
100
AcDbPolyline
 90
    8
 70
    1
 43
0
 10
326.9908045
 20
-135.777605
 10
326.9908045
 20
-147.175605000001
 10
325.6898045000011
 20
-148.476605000001
 10
313.691804499999
 20
-148.476605000001
 10
312.3908045000001
 20
-147.175605000001
 10
312.3908045000001
 20
-135.777605
 10
313.691804499999
 20
-134.476605000001
 10
325.6898045000011
 20
-134.476605000001
  0
LWPOLYLINE
  5
A8
100
AcDbEntity
  8
0
  6
ByLayer
 62
  256
370
   -1
100
AcDbPolyline
 90
    8
 70
    1
 43
0
 10
69.815804499999
 20
-147.175605000001
 10
68.5148044999997
 20
-148.476605000001
 10
56.51680450000001
 20
-148.476605000001
 10
55.21580450000051
 20
-147.175605000001
 10
55.21580450000051
 20
-135.777605
 10
56.51680450000001
 20
-134.476605000001
 10
68.5148044999996
 20
-134.476605000001
 10
69.815804499999
 20
-135.777605
  0
LWPOLYLINE
  5
A9
100
AcDbEntity
  8
0
  6
ByLayer
 62
  256
370
   -1
100
AcDbPolyline
 90
    8
 70
    1
 43
0
 10
61.27930450000071
 20
-72.276605
 10
59.97830449999941
 20
-70.9756050000006
 10
59.97830449999941
 20
-59.57760500000131
 10
61.27930450000071
 20
-58.276605
 10
73.2773045000003
 20
-58.276605
 10
74.5783044999998
 20
-59.57760500000131
 10
74.5783044999998
 20
-70.9756050000006
 10
73.2773045000003
 20
-72.276605
  0
LWPOLYLINE
  5
AA
100
AcDbEntity
  8
0
  6
ByLayer
 62
  256
370
   -1
100
AcDbPolyline
 90
    8
 70
    1
 43
0
 10
312.3908045000001
 20
-35.7651050000013
 10
313.691804499999
 20
-34.464105
 10
325.6898045000011
 20
-34.464105
 10
326.9908045
 20
-35.7651050000013
 10
326.9908045
 20
-47.1631050000007
 10
325.6898045000011
 20
-48.46410500000011
 10
313.691804499999
 20
-48.46410500000011
 10
312.3908045000001
 20
-47.1631050000007
  0
LWPOLYLINE
  5
AB
100
AcDbEntity
  8
0
  6
ByLayer
 62
  256
370
   -1
100
AcDbPolyline
 90
    8
 70
    1
 43
0
 10
331.440804499999
 20
-147.175605000001
 10
331.440804499999
 20
-135.777605
 10
332.7418045000001
 20
-134.476605000001
 10
344.7398045
 20
-134.476605000001
 10
346.0408045
 20
-135.777605
 10
346.0408045
 20
-147.175605000001
 10
344.7398045
 20
-148.476605000001
 10
332.7418045000001
 20
-148.476605000001
  0
LWPOLYLINE
  5
AC
100
AcDbEntity
  8
0
  6
ByLayer
 62
  256
370
   -1
100
AcDbPolyline
 90
    8
 70
    1
 43
0
 10
42.2293044999996
 20
-58.276605
 10
54.22730449999921
 20
-58.276605
 10
55.52830450000051
 20
-59.57760500000131
 10
55.52830450000051
 20
-70.9756050000006
 10
54.22730449999921
 20
-72.276605
 10
42.2293044999996
 20
-72.276605
 10
40.92830450000011
 20
-70.9756050000006
 10
40.92830450000021
 20
-59.57760500000131
  0
CIRCLE
  5
AD
100
AcDbEntity
  8
0
  6
ByLayer
 62
  256
370
   -1
100
AcDbCircle
 10
332.434304780044
 20
-154.470105
 40
1.49999999999999
  0
LWPOLYLINE
  5
AE
100
AcDbEntity
  8
0
  6
ByLayer
 62
  256
370
   -1
100
AcDbPolyline
 90
    8
 70
    1
 43
0
 10
147.0053045
 20
-34.464105
 10
159.0033045
 20
-34.464105
 10
160.304304499999
 20
-35.7651050000012
 10
160.304304499999
 20
-47.1631050000006
 10
159.0033045
 20
-48.46410500000001
 10
147.0053045
 20
-48.46410500000001
 10
145.704304499999
 20
-47.1631050000006
 10
145.704304499999
 20
-35.7651050000012
  0
CIRCLE
  5
AF
100
AcDbEntity
  8
0
  6
ByLayer
 62
  256
370
   -1
100
AcDbCircle
 10
74.43380500000001
 20
-154.470105
 40
1.5
  0
LWPOLYLINE
  5
B0
100
AcDbEntity
  8
0
  6
ByLayer
 62
  256
370
   -1
100
AcDbPolyline
 90
    8
 70
    1
 43
0
 10
23.1793045000003
 20
-58.276605
 10
35.1773044999999
 20
-58.276605
 10
36.4783044999994
 20
-59.57760500000131
 10
36.4783044999994
 20
-70.9756050000006
 10
35.1773044999999
 20
-72.276605
 10
23.1793045000003
 20
-72.276605
 10
21.8783044999991
 20
-70.9756050000006
 10
21.8783044999991
 20
-59.57760500000131
  0
CIRCLE
  5
B1
100
AcDbEntity
  8
0
  6
ByLayer
 62
  256
370
   -1
100
AcDbCircle
 10
136.434181719956
 20
-28.4706049999999
 40
1.5
  0
CIRCLE
  5
B2
100
AcDbEntity
  8
0
  6
ByLayer
 62
  256
370
   -1
100
AcDbCircle
 10
332.434304719956
 20
-28.470605
 40
1.49999999999999
  0
LWPOLYLINE
  5
B3
100
AcDbEntity
  8
0
  6
ByLayer
 62
  256
370
   -1
100
AcDbPolyline
 90
    8
 70
    1
 43
0
 10
2.82830449999974
 20
-59.57760500000131
 10
4.12930449999923
 20
-58.276605
 10
16.1273045000007
 20
-58.276605
 10
17.4283045000001
 20
-59.57760500000131
 10
17.4283045000001
 20
-70.9756050000006
 10
16.1273045000007
 20
-72.276605
 10
4.129304499999229
 20
-72.276605
 10
2.82830449999977
 20
-70.9756050000006
  0
CIRCLE
  5
B4
100
AcDbEntity
  8
0
  6
ByLayer
 62
  256
370
   -1
100
AcDbCircle
 10
74.43380471995729
 20
-28.470605
 40
1.49999999999999
  0
CIRCLE
  5
B5
100
AcDbEntity
  8
0
  6
ByLayer
 62
  256
370
   -1
100
AcDbCircle
 10
181.5783365
 20
-41.46410499999994
 40
1.4
  0
CIRCLE
  5
B6
100
AcDbEntity
  8
0
  6
ByLayer
 62
  256
370
   -1
100
AcDbCircle
 10
267.3047125
 20
-41.46412900000001
 40
1.4
  0
CIRCLE
  5
B7
100
AcDbEntity
  8
0
  6
ByLayer
 62
  256
370
   -1
100
AcDbCircle
 10
283.7046185
 20
-72.47564499999996
 40
1.4
  0
CIRCLE
  5
B8
100
AcDbEntity
  8
0
  6
ByLayer
 62
  256
370
   -1
100
AcDbCircle
 10
153.0040405
 20
-65.27670099999996
 40
1.4
  0
CIRCLE
  5
B9
100
AcDbEntity
  8
0
  6
ByLayer
 62
  256
370
   -1
100
AcDbCircle
 10
238.7295445
 20
-84.32674899999995
 40
1.4
  0
CIRCLE
  5
BA
100
AcDbEntity
  8
0
  6
ByLayer
 62
  256
370
   -1
100
AcDbCircle
 10
124.4289845
 20
-41.46412899999995
 40
1.4
  0
CIRCLE
  5
BB
100
AcDbEntity
  8
0
  6
ByLayer
 62
  256
370
   -1
100
AcDbCircle
 10
233.9670175
 20
-122.426845
 40
1.4
  0
CIRCLE
  5
BC
100
AcDbEntity
  8
0
  6
ByLayer
 62
  256
370
   -1
100
AcDbCircle
 10
181.5793205
 20
-84.32674899999995
 40
1.4
  0
CIRCLE
  5
BD
100
AcDbEntity
  8
0
  6
ByLayer
 62
  256
370
   -1
100
AcDbCircle
 10
229.2044885
 20
-65.27670099999996
 40
1.4
  0
CIRCLE
  5
BE
100
AcDbEntity
  8
0
  6
ByLayer
 62
  256
370
   -1
100
AcDbCircle
 10
243.4920725
 20
-103.376797
 40
1.4
  0
CIRCLE
  5
BF
100
AcDbEntity
  8
0
  6
ByLayer
 62
  256
370
   -1
100
AcDbCircle
 10
195.8667925
 20
-122.426845
 40
1.4
  0
CIRCLE
  5
C0
100
AcDbEntity
  8
0
  6
ByLayer
 62
  256
370
   -1
100
AcDbCircle
 10
105.3787605
 20
-84.32674899999995
 40
1.4
  0
CIRCLE
  5
C1
100
AcDbEntity
  8
0
  6
ByLayer
 62
  256
370
   -1
100
AcDbCircle
 10
157.7665685
 20
-141.476893
 40
1.4
  0
CIRCLE
  5
C2
100
AcDbEntity
  8
0
  6
ByLayer
 62
  256
370
   -1
100
AcDbCircle
 10
236.3482805
 20
-141.476894
 40
1.4
  0
CIRCLE
  5
C3
100
AcDbEntity
  8
0
  6
ByLayer
 62
  256
370
   -1
100
AcDbCircle
 10
157.7666805
 20
-122.426845
 40
1.4
  0
CIRCLE
  5
C4
100
AcDbEntity
  8
0
  6
ByLayer
 62
  256
370
   -1
100
AcDbCircle
 10
281.3233685
 20
-110.575645
 40
1.4
  0
CIRCLE
  5
C5
100
AcDbEntity
  8
0
  6
ByLayer
 62
  256
370
   -1
100
AcDbCircle
 10
338.7426604999999
 20
-122.426845
 40
1.4
  0
CIRCLE
  5
C6
100
AcDbEntity
  8
0
  6
ByLayer
 62
  256
370
   -1
100
AcDbCircle
 10
148.2415125
 20
-103.376796
 40
1.4
  0
CIRCLE
  5
C7
100
AcDbEntity
  8
0
  6
ByLayer
 62
  256
370
   -1
100
AcDbCircle
 10
329.2176044999999
 20
-141.476893
 40
1.4
  0
CIRCLE
  5
C8
100
AcDbEntity
  8
0
  6
ByLayer
 62
  256
370
   -1
100
AcDbCircle
 10
287.4675135
 20
-141.4756449999999
 40
1.4
  0
CIRCLE
  5
C9
100
AcDbEntity
  8
0
  6
ByLayer
 62
  256
370
   -1
100
AcDbCircle
 10
122.0476085
 20
-141.476893
 40
1.4
  0
CIRCLE
  5
CA
100
AcDbEntity
  8
0
  6
ByLayer
 62
  256
370
   -1
100
AcDbCircle
 10
100.6168605
 20
-122.425645
 40
1.4
  0
CIRCLE
  5
CB
100
AcDbEntity
  8
0
  6
ByLayer
 62
  256
370
   -1
100
AcDbCircle
 10
205.3918485
 20
-103.376796
 40
1.4
  0
CIRCLE
  5
CC
100
AcDbEntity
  8
0
  6
ByLayer
 62
  256
370
   -1
100
AcDbCircle
 10
52.99095249999999
 20
-103.376796
 40
1.4
  0
CIRCLE
  5
CD
100
AcDbEntity
  8
0
  6
ByLayer
 62
  256
370
   -1
100
AcDbCircle
 10
329.2176044999999
 20
-84.32674899999995
 40
1.4
  0
CIRCLE
  5
CE
100
AcDbEntity
  8
0
  6
ByLayer
 62
  256
370
   -1
100
AcDbCircle
 10
43.46583249999998
 20
-122.426673
 40
1.4
  0
CIRCLE
  5
CF
100
AcDbEntity
  8
0
  6
ByLayer
 62
  256
370
   -1
100
AcDbCircle
 10
329.2168605
 20
-41.46314500000001
 40
1.4
  0
CIRCLE
  5
D0
100
AcDbEntity
  8
0
  6
ByLayer
 62
  256
370
   -1
100
AcDbCircle
 10
76.80359249999998
 20
-141.476893
 40
1.4
  0
CIRCLE
  5
D1
100
AcDbEntity
  8
0
  6
ByLayer
 62
  256
370
   -1
100
AcDbCircle
 10
50.60968849999998
 20
-141.476894
 40
1.4
  0
CIRCLE
  5
D2
100
AcDbEntity
  8
0
  6
ByLayer
 62
  256
370
   -1
100
AcDbCircle
 10
2.98440849999998
 20
-103.376797
 40
1.4
  0
CIRCLE
  5
D3
100
AcDbEntity
  8
0
  6
ByLayer
 62
  256
370
   -1
100
AcDbCircle
 10
26.79704849999998
 20
-84.32674899999995
 40
1.4
  0
CIRCLE
  5
D4
100
AcDbEntity
  8
0
  6
ByLayer
 62
  256
370
   -1
100
AcDbCircle
 10
310.1674925
 20
-65.27670199999996
 40
1.4
  0
CIRCLE
  5
D5
100
AcDbEntity
  8
0
  6
ByLayer
 62
  256
370
   -1
100
AcDbCircle
 10
22.03455449999998
 20
-41.46410499999995
 40
1.4
  0
CIRCLE
  5
D6
100
AcDbEntity
  8
0
  6
ByLayer
 62
  256
370
   -1
100
AcDbCircle
 10
19.65325649999998
 20
-65.27670099999996
 40
1.4
  0
CIRCLE
  5
D7
100
AcDbEntity
  8
0
  6
ByLayer
 62
  256
370
   -1
100
AcDbCircle
 10
76.80359249999998
 20
-65.27670099999996
 40
1.4
  0
CIRCLE
  5
D8
100
AcDbEntity
  8
0
  6
ByLayer
 62
  256
370
   -1
100
AcDbCircle
 10
5.635868499999981
 20
-129.625645
 40
1.4
  0
CIRCLE
  5
D9
100
AcDbEntity
  8
0
  6
ByLayer
 62
  256
370
   -1
100
AcDbCircle
 10
248.5233685
 20
-110.575645
 40
1.4
  0
ENDSEC
  0
SECTION
  2
OBJECTS
  0
DICTIONARY
  5
C
330
0
100
AcDbDictionary
281
    1
  3
ACAD_GROUP
350
D
  0
DICTIONARY
  5
D
330
C
100
AcDbDictionary
281
    1
  0
PLOTSETTINGS
  5
DA
100
AcDbPlotSettings
  6
1x1
 40
0
 41
0
 42
0
 43
0
  0
ENDSEC
  0
EOF
