0
SECTION
2
HEADER
9
$INSUNITS
70
4
9
$ACADVER
1
AC1014
9
$HANDSEED
5
FFFF
0
ENDSEC
0
SECTION
2
TABLES
0
TABLE
2
VPORT
5
8
100
AcDbSymbolTable
0
ENDTAB
0
TABLE
2
LTYPE
5
5
100
AcDbSymbolTable
0
LTYPE
5
14
100
AcDbSymbolTableRecord
100
AcDbLinetypeTableRecord
2
BYBLOCK
70
0
0
LTYPE
5
15
100
AcDbSymbolTableRecord
100
AcDbLinetypeTableRecord
2
BYLAYER
70
0
0
ENDTAB
0
TABLE
2
LAYER
5
2
100
AcDbSymbolTable
70
2
0
LAYER
5
50
100
AcDbSymbolTableRecord
100
AcDbLayerTableRecord
2
0
70
0
6
CONTINUOUS
0
ENDTAB
0
TABLE
2
STYLE
5
3
100
AcDbSymbolTable
70
1
0
STYLE
5
11
100
AcDbSymbolTableRecord
100
AcDbTextStyleTableRecord
2
STANDARD
70
0
0
ENDTAB
0
TABLE
2
VIEW
5
6
100
AcDbSymbolTable
70
0
0
ENDTAB
0
TABLE
2
UCS
5
7
100
AcDbSymbolTable
70
0
0
ENDTAB
0
TABLE
2
APPID
5
9
100
AcDbSymbolTable
70
2
0
APPID
5
12
100
AcDbSymbolTableRecord
100
AcDbRegAppTableRecord
2
ACAD
70
0
0
ENDTAB
0
TABLE
2
DIMSTYLE
5
A
100
AcDbSymbolTable
70
1
0
ENDTAB
0
TABLE
2
BLOCK_RECORD
5
1
100
AcDbSymbolTable
70
1
0
BLOCK_RECORD
5
1F
100
AcDbSymbolTableRecord
100
AcDbBlockTableRecord
2
*MODEL_SPACE
0
BLOCK_RECORD
5
1B
100
AcDbSymbolTableRecord
100
AcDbBlockTableRecord
2
*PAPER_SPACE
0
ENDTAB
0
ENDSEC
0
SECTION
2
BLOCKS
0
BLOCK
5
20
100
AcDbEntity
100
AcDbBlockBegin
2
*MODEL_SPACE
0
ENDBLK
5
21
100
AcDbEntity
100
AcDbBlockEnd
0
BLOCK
5
1C
100
AcDbEntity
100
AcDbBlockBegin
2
*PAPER_SPACE
0
ENDBLK
5
1D
100
AcDbEntity
100
AcDbBlockEnd
0
ENDSEC
0
SECTION
2
ENTITIES
0
LWPOLYLINE
5
100
100
AcDbEntity
8
0
100
AcDbPolyline
90
8
70
1
43
0.0
10
127.95430450000001
20
-91.326605000001109
10
126.653304500001
20
-90.0256049999998
10
126.653304500001
20
-78.627605000000614
10
127.95430450000001
20
-77.326605000001095
10
139.95230450000003
20
-77.326605000001095
10
141.25330449999899
20
-78.627605000000614
10
141.25330449999899
20
-90.0256049999998
10
139.95230450000003
20
-91.326605000001109
0
LWPOLYLINE
5
101
100
AcDbEntity
8
0
100
AcDbPolyline
90
8
70
1
43
0.0
10
216.15230450000001
20
-77.326605000001095
10
217.4533045
20
-78.627605000000614
10
217.4533045
20
-90.0256049999998
10
216.15230450000001
20
-91.326605000001109
10
204.15430449999903
20
-91.326605000001109
10
202.85330449999904
20
-90.0256049999998
10
202.85330449999904
20
-78.627605000000614
10
204.15430449999903
20
-77.326605000001095
0
LWPOLYLINE
5
102
100
AcDbEntity
8
0
100
AcDbPolyline
90
8
70
1
43
0.0
10
84.103304499999396
20
-90.0256049999998
10
82.802304499999906
20
-91.326605000001109
10
70.804304500000299
20
-91.326605000001109
10
69.503304499999004
20
-90.0256049999998
10
69.503304499999004
20
-78.627605000000614
10
70.804304500000399
20
-77.326605000001095
10
82.802304499999906
20
-77.326605000001095
10
84.103304499999396
20
-78.627605000000614
0
LWPOLYLINE
5
103
100
AcDbEntity
8
0
100
AcDbPolyline
90
8
70
1
43
0.0
10
235.2023045
20
-77.326605000001095
10
236.50330449999899
20
-78.627605000000614
10
236.50330449999899
20
-90.0256049999998
10
235.2023045
20
-91.326605000001109
10
223.20430450000003
20
-91.326605000001109
10
221.90330450000002
20
-90.0256049999998
10
221.90330450000002
20
-78.627605000000614
10
223.20430450000003
20
-77.326605000001095
0
LWPOLYLINE
5
104
100
AcDbEntity
8
0
100
AcDbPolyline
90
8
70
1
43
0.0
10
92.327304499999613
20
-72.276605000000004
10
80.329304500000006
20
-72.276605000000004
10
79.028304500000502
20
-70.975605000000598
10
79.028304500000502
20
-59.577605000001306
10
80.329304500000106
20
-58.276605000000004
10
92.327304499999613
20
-58.276605000000004
10
93.628304499999018
20
-59.577605000001306
10
93.628304499999018
20
-70.975605000000598
0
LWPOLYLINE
5
105
100
AcDbEntity
8
0
100
AcDbPolyline
90
8
70
1
43
0.0
10
246.02830450000101
20
-59.577605000001306
10
246.02830450000101
20
-70.975605000000598
10
244.72730449999901
20
-72.276605000000004
10
232.72930449999902
20
-72.276605000000004
10
231.42830450000002
20
-70.975605000000598
10
231.42830450000002
20
-59.577605000001306
10
232.72930449999902
20
-58.276605000000004
10
244.72730449999901
20
-58.276605000000004
0
LWPOLYLINE
5
106
100
AcDbEntity
8
0
100
AcDbPolyline
90
6
70
1
43
0.0
10
280.30330450000002
20
-72.276605000000103
10
254.3033045
20
-72.276605000000004
10
251.30330450000002
20
-70.544605000000104
10
251.30330450000002
20
-58.276605000000004
10
283.30330450000008
20
-58.276605000000004
10
283.30330450000008
20
-70.544605000000104
0
LWPOLYLINE
5
107
100
AcDbEntity
8
0
100
AcDbPolyline
90
6
70
1
43
0.0
10
248.92205450000003
20
-96.376605000000396
10
280.9220545
20
-96.376605000000509
10
280.9220545
20
-108.644605
10
277.9220545
20
-110.37660500000001
10
251.92205450000003
20
-110.37660500000001
10
248.92205450000003
20
-108.644605
0
LWPOLYLINE
5
108
100
AcDbEntity
8
0
100
AcDbPolyline
90
105
70
1
43
0.0
10
210.58645749999999
20
-153.97010499999993
10
269.23815250000007
20
-153.9701050000001
42
-0.2679491924311394
10
272.2692414132456
20
-155.72010500000025
42
0.57735027949534434
10
276.59936858675428
20
-155.72010500000016
42
-0.26794919243113963
10
279.63045749999998
20
-153.97010499999993
10
327.23815250000001
20
-153.97010538097587
42
-0.26794917625059156
10
330.26924097763424
20
-155.72010500745091
42
0.57735030767583295
10
334.59936858675457
20
-155.72010499999973
42
-0.26794919243109999
10
337.63045749999998
20
-153.97010499999999
10
341.19867950000008
20
-153.970105945797
42
0.2269670884449205
10
342.75627186296305
20
-153.22466062412707
42
-0.47858814361029373
10
345.09265913703695
20
-153.22466062412704
42
0.22696700599604738
10
346.65025050000003
20
-153.97010516700135
10
346.89877050000001
20
-153.97010499999999
42
0.19891236737966322
10
348.66653745296628
20
-153.23787195296626
10
349.70207145296598
20
-152.20233795296599
42
0.19891236737966059
10
350.43430450000011
20
-150.43457100000001
10
350.43430450000102
20
-114.578444
42
0.19891236737984411
10
350.14141128118683
20
-113.8713372188132
10
346.93957271881408
20
-110.6694987811869
42
-0.19891236737965801
10
346.64667950000052
20
-109.96239199999999
10
346.64667950000046
20
-96.790818999999999
42
-0.19891236737977089
10
346.93957271881396
20
-96.083712218813389
10
350.1414115
20
-92.881873000000013
42
0.19891218360851942
10
350.43430410234259
20
-92.174767000000003
10
350.43430450000005
20
-32.50613899999999
42
0.19891236737974521
10
349.70207145296632
20
-30.738372047033572
10
348.66653745296702
20
-29.702838047033602
42
0.19891236737967435
10
346.89877050000001
20
-28.970604999999811
10
343.2010555
20
-28.970605000000003
42
0.23320942014221588
10
341.61415427666873
20
-29.753335716977368
42
-0.49324480761366457
10
339.23380272333162
20
-29.753335716977809
42
0.23320942014229892
10
337.64690150000001
20
-28.97060499999974
10
337.63045749999998
20
-28.970605485050719
42
-0.26794921452902237
10
334.5993680223649
20
-27.220604992550001
42
0.57735026918961596
10
330.26924130756879
20
-27.220605183037179
42
-0.26794917625058562
10
327.23815250000001
20
-28.970604999999942
10
279.63045749999998
20
-28.970605000000134
42
-0.26794919243112703
10
276.59936858675422
20
-27.220604999999971
42
0.577350279495355
10
272.26924141324571
20
-27.220604999999821
42
-0.26794919243114035
10
269.23815250000007
20
-28.970605000000042
10
217.63045750000003
20
-28.970604999999928
42
-0.2679491924311157
10
214.59936858675468
20
-27.220605000000091
42
0.57735030767590756
10
210.26924130756896
20
-27.22060518303746
42
-0.26794917625056003
10
207.23815250000001
20
-28.970605000000123
10
177.2010555
20
-28.9706049999999
42
0.23320942014228827
10
175.6141542766683
20
-29.753335716977855
42
-0.493244807613549
10
173.23380272333171
20
-29.75333571697783
42
0.23320942014229673
10
171.64690150000001
20
-28.970604999999789
10
141.6303345
20
-28.970605485049504
42
-0.26794921452900122
10
138.59924502236598
20
-27.220604992549532
42
0.57735026918965426
10
134.26911830756882
20
-27.2206051830372
42
-0.26794917625057241
10
131.23802950000001
20
-28.970604999999875
10
79.629957500000017
20
-28.970605485048111
42
-0.26794921452901704
10
76.598868022367029
20
-27.220604992548747
42
0.57735026918963017
10
72.268741307568916
20
-27.220605183037407
42
-0.26794917625055586
10
69.237652499999996
20
-28.97060500000002
10
21.629957499999996
20
-28.970604999999932
42
-0.26794919243111809
10
18.598868586754463
20
-27.220604999999964
42
0.57735027949538831
10
14.268741413245646
20
-27.220604999999928
42
-0.26794919243112497
10
11.237652499999999
20
-28.970605000000013
10
11.201055500000001
20
-28.9706049999999
42
0.23320942014226392
10
9.6141542766686889
20
-29.753335716977709
42
-0.49324478504570901
10
7.2338027896181565
20
-29.753335803393
42
0.23320943449651407
10
5.64690150000001
20
-28.970604999999942
10
1.9698385000000203
20
-28.970604933484402
42
0.19891236737965529
10
0.20207149999996205
20
-29.702837999999989
10
-0.83346253325778707
20
-30.738372127324904
42
0.19891235730750068
10
-1.5656955125224992
20
-32.506139016661002
10
-1.5656951023424173
20
-92.174767000000003
42
0.19891218360851873
10
-1.2728025000000134
20
-92.881872999999985
10
0.92903628118649251
20
-96.083712218813432
42
-0.19891236737963527
10
1.221929499999949
20
-96.790818999999914
10
1.2219295000000796
20
-109.96239199999999
42
-0.19911396054110184
10
0.92848759975247974
20
-110.67004703719989
10
0.92834139309552199
20
-110.670509263716
10
-1.2728022811865702
20
-113.871337218813
42
0.19891236737973672
10
-1.5656954999999999
20
-114.578444
10
-1.565695561868079
20
-150.43457099742335
42
0.19891236764751966
10
-0.83346250000000455
20
-152.20233800000003
10
0.20207154703356905
20
-153.237871952966
42
0.19891236737968884
10
1.9698384999999901
20
-153.9701050000001
10
2.1986794999999799
20
-153.97010499999999
42
0.22696706532625857
10
3.7562710160491202
20
-153.22466016783099
42
-0.47858817963937894
10
6.0926598736194082
20
-153.22466003084918
42
0.22696700599609299
10
7.6502504999999799
20
-153.97010422120434
10
11.237652499999896
20
-153.97010500000019
42
-0.26794919243111642
10
14.26874141324522
20
-155.72010500000002
42
0.5773502794954215
10
18.59886858675447
20
-155.72010500000002
42
-0.26794919243112414
10
21.6299575
20
-153.97010500000002
10
69.23765250000001
20
-153.9701049999999
42
-0.26794919243112453
10
72.268741413245635
20
-155.72010499999999
42
0.57735024100922328
10
76.598868442431268
20
-155.72010524997506
42
-0.26794921452900072
10
79.629957500000017
20
-153.97010500000005
10
138.23802950000001
20
-153.97010538097581
42
-0.26794917625058706
10
141.26911797763429
20
-155.72010500745083
42
0.57735026918961341
10
145.59924544243123
20
-155.72010524997518
42
-0.26794921452900466
10
148.6303345
20
-153.97010499999996
10
171.6986795
20
-153.97010499999999
42
0.22696706532624705
10
173.25627101604923
20
-153.22466016783116
42
-0.47858808717652146
10
175.59265959047335
20
-153.22465967930978
42
0.22696706532629876
10
177.15025050000003
20
-153.97010422120445
10
200.19415250000003
20
-153.9701049999999
42
-0.26794919243114035
10
203.22524141324575
20
-155.72010500000016
42
0.57735024100918031
10
207.55536844243119
20
-155.72010524997515
42
-0.267949214529005
0
LWPOLYLINE
5
109
100
AcDbEntity
8
0
100
AcDbPolyline
90
8
70
1
43
0.0
10
80.105304499999818
20
-134.60610500000001
10
102.054283938526
20
-134.52362556147401
10
102.56228393852601
20
-135.03162556147501
10
102.56228393852601
20
-147.75662556147404
10
102.054283938526
20
-148.26462556147399
10
80.105304499999818
20
-148.347105
10
79.597304500000007
20
-147.83910499999999
10
79.597304500000007
20
-135.11410500000204
0
LWPOLYLINE
5
110
100
AcDbEntity
8
0
100
AcDbPolyline
90
6
70
1
43
0.0
10
244.15955449999899
20
-115.42660500000201
10
276.15955449999899
20
-115.42660500000201
10
276.15955449999899
20
-127.694605000002
10
273.15955449999899
20
-129.42660500000201
10
247.15955449999899
20
-129.42660500000201
10
244.15955449999899
20
-127.694605000002
0
LWPOLYLINE
5
111
100
AcDbEntity
8
0
100
AcDbPolyline
90
8
70
1
43
0.0
10
264.7658045
20
-90.0256049999998
10
264.7658045
20
-78.627605000000614
10
266.06680449999902
20
-77.326605000001095
10
278.06480449999901
20
-77.326605000001194
10
279.36580450000002
20
-78.627605000000699
10
279.36580450000002
20
-90.025604999999899
10
278.06480449999901
20
-91.326605000001109
10
266.06680449999902
20
-91.326605000001109
0
LWPOLYLINE
5
112
100
AcDbEntity
8
0
100
AcDbPolyline
90
8
70
1
43
0.0
10
213.67930450000003
20
-72.276605000000004
10
212.37830449999902
20
-70.975605000000598
10
212.37830449999902
20
-59.577605000001306
10
213.67930450000003
20
-58.276605000000004
10
225.67730449999999
20
-58.276605000000004
10
226.97830449999901
20
-59.577605000001306
10
226.97830449999901
20
-70.975605000000598
10
225.67730449999999
20
-72.276605000000004
0
LWPOLYLINE
5
113
100
AcDbEntity
8
0
100
AcDbPolyline
90
8
70
1
43
0.0
10
254.25230449999901
20
-77.326605000001095
10
255.5533045
20
-78.627605000000614
10
255.5533045
20
-90.0256049999998
10
254.25230449999901
20
-91.326605000001109
10
242.25430449999902
20
-91.326605000001109
10
240.95330450000003
20
-90.0256049999998
10
240.95330450000003
20
-78.627605000000614
10
242.25430449999902
20
-77.326605000001095
0
LWPOLYLINE
5
114
100
AcDbEntity
8
0
100
AcDbPolyline
90
8
70
1
43
0.0
10
231.74080450000002
20
-128.12560500000001
10
230.43980449999904
20
-129.42660500000201
10
218.44180449999899
20
-129.42660500000201
10
217.1408045
20
-128.12560500000001
10
217.1408045
20
-116.72760500000102
10
218.44180449999899
20
-115.42660500000201
10
230.43980449999904
20
-115.42660500000201
10
231.74080450000002
20
-116.72760500000102
0
LWPOLYLINE
5
115
100
AcDbEntity
8
0
100
AcDbPolyline
90
8
70
1
43
0.0
10
254.25230449999901
20
-148.476605000001
10
242.25430449999902
20
-148.476605000001
10
240.95330450000003
20
-147.17560500000101
10
240.95330450000003
20
-135.77760499999999
10
242.25430449999902
20
-134.476605000001
10
254.25230449999901
20
-134.476605000001
10
255.5533045
20
-135.77760499999999
10
255.5533045
20
-147.17560500000101
0
LWPOLYLINE
5
116
100
AcDbEntity
8
0
100
AcDbPolyline
90
8
70
1
43
0.0
10
231.74080450000002
20
-147.17560500000101
10
230.43980449999904
20
-148.476605000001
10
218.44180449999899
20
-148.476605000001
10
217.1408045
20
-147.17560500000101
10
217.1408045
20
-135.77760499999999
10
218.44180449999899
20
-134.476605000001
10
230.43980449999904
20
-134.476605000001
10
231.74080450000002
20
-135.77760499999999
0
LWPOLYLINE
5
117
100
AcDbEntity
8
0
100
AcDbPolyline
90
8
70
1
43
0.0
10
239.96480450000004
20
-96.376605000000396
10
241.26580450000003
20
-97.677605000000014
10
241.26580450000003
20
-109.07560500000102
10
239.96480450000004
20
-110.37660500000001
10
227.96680450000099
20
-110.37660500000001
10
226.66580449999901
20
-109.07560500000102
10
226.66580449999901
20
-97.677605000000014
10
227.96680450000099
20
-96.376605000000396
0
LWPOLYLINE
5
118
100
AcDbEntity
8
0
100
AcDbPolyline
90
8
70
1
43
0.0
10
222.21580450000002
20
-109.07560500000102
10
220.91480449999904
20
-110.37660500000001
10
208.91680450000001
20
-110.37660500000001
10
207.6158045
20
-109.07560500000102
10
207.6158045
20
-97.677605000000014
10
208.91680450000001
20
-96.376605000000396
10
220.91480449999904
20
-96.376605000000396
10
222.21580450000002
20
-97.677605000000014
0
LWPOLYLINE
5
119
100
AcDbEntity
8
0
100
AcDbPolyline
90
8
70
1
43
0.0
10
161.29180450000004
20
-115.42660500000201
10
173.28980449999901
20
-115.42660500000201
10
174.59080449999999
20
-116.72760500000102
10
174.59080449999999
20
-128.12560500000001
10
173.28980449999901
20
-129.42660500000201
10
161.29180450000004
20
-129.42660500000201
10
159.99080450000002
20
-128.12560500000001
10
159.99080450000002
20
-116.72760500000102
0
LWPOLYLINE
5
120
100
AcDbEntity
8
0
100
AcDbPolyline
90
8
70
1
43
0.0
10
170.81680449999902
20
-110.37660500000001
10
169.5158045
20
-109.07560500000102
10
169.5158045
20
-97.677604999999915
10
170.81680449999902
20
-96.376605000000396
10
182.814804500001
20
-96.376605000000396
10
184.1158045
20
-97.677605000000014
10
184.1158045
20
-109.07560500000102
10
182.814804500001
20
-110.37660500000001
0
LWPOLYLINE
5
121
100
AcDbEntity
8
0
100
AcDbPolyline
90
8
70
1
43
0.0
10
199.39180450000003
20
-115.42660500000201
10
211.38980450000003
20
-115.42660500000201
10
212.69080449999902
20
-116.72760500000102
10
212.69080449999902
20
-128.12560500000001
10
211.38980449999903
20
-129.42660500000201
10
199.39180450000003
20
-129.42660500000201
10
198.09080449999999
20
-128.12560500000001
10
198.09080449999999
20
-116.72760500000102
0
LWPOLYLINE
5
122
100
AcDbEntity
8
0
100
AcDbPolyline
90
8
70
1
43
0.0
10
203.16580449999904
20
-109.07560500000102
10
201.86480450000002
20
-110.37660500000001
10
189.8668045
20
-110.37660500000001
10
188.56580449999899
20
-109.07560500000102
10
188.56580449999899
20
-97.677605000000014
10
189.8668045
20
-96.376605000000396
10
201.86480450000002
20
-96.376605000000396
10
203.16580449999904
20
-97.677604999999915
0
LWPOLYLINE
5
123
100
AcDbEntity
8
0
100
AcDbPolyline
90
8
70
1
43
0.0
10
180.34180450000099
20
-115.42660500000201
10
192.33980450000004
20
-115.42660500000201
10
193.64080450000003
20
-116.72760500000102
10
193.64080450000003
20
-128.12560500000001
10
192.33980450000004
20
-129.42660500000201
10
180.34180450000099
20
-129.42660500000201
10
179.04080449999901
20
-128.12560500000001
10
179.04080449999901
20
-116.72760500000102
0
LWPOLYLINE
5
124
100
AcDbEntity
8
0
100
AcDbPolyline
90
8
70
1
43
0.0
10
184.88328393852601
20
-134.52362556147401
10
206.85130449999903
20
-134.60610500000001
10
207.359304500001
20
-135.11410500000204
10
207.359304500001
20
-147.83910499999999
10
206.85130449999903
20
-148.347105
10
184.88328393852601
20
-148.26462556147399
10
184.37528393852699
20
-147.75662556147404
10
184.37528393852699
20
-135.03162556147501
0
CIRCLE
5
125
100
AcDbEntity
8
0
100
AcDbCircle
10
205.43430450000002
20
-154.47010499999999
30
0
40
1.49999999999999
210
0
220
0
230
1
0
LWPOLYLINE
5
126
100
AcDbEntity
8
0
100
AcDbPolyline
90
8
70
1
43
0.0
10
169.8283045
20
-70.975605000000598
10
168.52730450000001
20
-72.276605000000004
10
156.529304499999
20
-72.276605000000004
10
155.22830449999901
20
-70.975605000000598
10
155.22830449999901
20
-59.577605000001306
10
156.529304499999
20
-58.276605000000004
10
168.52730450000001
20
-58.276605000000004
10
169.8283045
20
-59.577605000001306
0
LWPOLYLINE
5
127
100
AcDbEntity
8
0
100
AcDbPolyline
90
8
70
1
43
0.0
10
166.0543045
20
-77.326605000001095
10
178.05230449999999
20
-77.326605000001095
10
179.35330449999901
20
-78.627605000000614
10
179.35330449999901
20
-90.0256049999998
10
178.05230449999999
20
-91.326605000001109
10
166.0543045
20
-91.326605000001109
10
164.75330449999899
20
-90.0256049999998
10
164.75330449999899
20
-78.627605000000614
0
LWPOLYLINE
5
128
100
AcDbEntity
8
0
100
AcDbPolyline
90
8
70
1
43
0.0
10
245.71730450000004
20
-47.163105000000698
10
245.71730450000004
20
-35.765105000001299
10
247.01830450000003
20
-34.464105000000004
10
259.01630449999902
20
-34.464105000000004
10
260.31730449999901
20
-35.765105000001299
10
260.31730449999901
20
-47.163105000000698
10
259.01630449999902
20
-48.46410500000011
10
247.01830450000003
20
-48.46410500000011
0
LWPOLYLINE
5
129
100
AcDbEntity
8
0
100
AcDbPolyline
90
8
70
1
43
0.0
10
312.39080450000006
20
-90.025604999999899
10
312.39080450000006
20
-78.627605000000699
10
313.69180449999902
20
-77.326605000001095
10
325.68980450000106
20
-77.326605000001194
10
326.99080450000002
20
-78.627605000000699
10
326.99080450000002
20
-90.0256049999998
10
325.68980450000106
20
-91.326605000001109
10
313.69180449999902
20
-91.326605000001109
0
LWPOLYLINE
5
130
100
AcDbEntity
8
0
100
AcDbPolyline
90
8
70
1
43
0.0
10
241.26730449999999
20
-35.765105000001299
10
241.26730449999999
20
-47.163105000000698
10
239.96630450000001
20
-48.46410500000011
10
227.96830450000101
20
-48.46410500000011
10
226.66730449999903
20
-47.163105000000698
10
226.66730449999903
20
-35.765105000001299
10
227.96830450000101
20
-34.464105000000004
10
239.96630450000001
20
-34.464105000000004
0
LWPOLYLINE
5
131
100
AcDbEntity
8
0
100
AcDbPolyline
90
8
70
1
43
0.0
10
220.916304499999
20
-34.464105000000004
10
222.21730450000103
20
-35.765105000001299
10
222.21730450000103
20
-47.163105000000698
10
220.916304499999
20
-48.46410500000011
10
208.91830449999901
20
-48.46410500000011
10
207.61730450000002
20
-47.163105000000698
10
207.61730450000002
20
-35.765105000001299
10
208.91830449999901
20
-34.464105000000004
0
LWPOLYLINE
5
132
100
AcDbEntity
8
0
100
AcDbPolyline
90
8
70
1
43
0.0
10
144.71480450000001
20
-96.376605000000396
10
146.0158045
20
-97.677605000000014
10
146.0158045
20
-109.07560500000102
10
144.71480450000001
20
-110.37660500000001
10
132.716804499999
20
-110.37660500000001
10
131.41580449999901
20
-109.07560500000102
10
131.41580449999901
20
-97.677605000000014
10
132.716804499999
20
-96.376605000000396
0
LWPOLYLINE
5
133
100
AcDbEntity
8
0
100
AcDbPolyline
90
8
70
1
43
0.0
10
165.06580449999899
20
-109.07560500000102
10
163.7648045
20
-110.37660500000001
10
151.76680450000001
20
-110.37660500000001
10
150.46580450000101
20
-109.07560500000102
10
150.46580450000101
20
-97.677605000000014
10
151.76680450000001
20
-96.376605000000396
10
163.7648045
20
-96.376605000000396
10
165.06580449999899
20
-97.677605000000014
0
LWPOLYLINE
5
134
100
AcDbEntity
8
0
100
AcDbPolyline
90
8
70
1
43
0.0
10
140.94080449999899
20
-116.72760500000102
10
142.2418045
20
-115.42660500000201
10
154.23980449999999
20
-115.42660500000201
10
155.54080449999901
20
-116.72760500000102
10
155.54080449999901
20
-128.12560500000001
10
154.23980449999999
20
-129.42660500000201
10
142.2418045
20
-129.42660500000201
10
140.94080449999899
20
-128.12560500000001
0
LWPOLYLINE
5
135
100
AcDbEntity
8
0
100
AcDbPolyline
90
8
70
1
43
0.0
10
135.189804500001
20
-115.42660500000201
10
136.4908045
20
-116.72760500000102
10
136.4908045
20
-128.12560500000001
10
135.189804500001
20
-129.42660500000201
10
123.19180449999899
20
-129.42660500000201
10
121.8908045
20
-128.12560500000001
10
121.8908045
20
-116.72760500000102
10
123.19180449999899
20
-115.42660500000201
0
LWPOLYLINE
5
136
100
AcDbEntity
8
0
100
AcDbPolyline
90
8
70
1
43
0.0
10
159.002304500001
20
-91.326605000001109
10
147.00430449999899
20
-91.326605000001109
10
145.7033045
20
-90.0256049999998
10
145.7033045
20
-78.627605000000614
10
147.00430449999899
20
-77.326605000001095
10
159.002304500001
20
-77.326605000001095
10
160.30330450000002
20
-78.627605000000614
10
160.30330450000002
20
-90.0256049999998
0
LWPOLYLINE
5
137
100
AcDbEntity
8
0
100
AcDbPolyline
90
8
70
1
43
0.0
10
346.04080449999998
20
-78.627605000000699
10
346.04080449999998
20
-90.0256049999998
10
344.73980449999999
20
-91.326605000001109
10
332.74180450000006
20
-91.326605000001109
10
331.44080449999899
20
-90.025604999999899
10
331.44080449999899
20
-78.627605000000699
10
332.74180450000006
20
-77.326605000001095
10
344.73980449999999
20
-77.326605000001194
0
LWPOLYLINE
5
138
100
AcDbEntity
8
0
100
AcDbPolyline
90
8
70
1
43
0.0
10
307.94080449999899
20
-78.627605000000699
10
307.94080449999899
20
-90.025604999999899
10
306.63980450000003
20
-91.326605000001109
10
294.64180450000003
20
-91.326605000001109
10
293.34080449999999
20
-90.025604999999899
10
293.34080449999999
20
-78.627605000000699
10
294.64180450000003
20
-77.326605000001095
10
306.63980450000003
20
-77.326605000001194
0
LWPOLYLINE
5
139
100
AcDbEntity
8
0
100
AcDbPolyline
90
8
70
1
43
0.0
10
306.63980450000003
20
-148.476605000001
10
294.64180450000003
20
-148.476605000001
10
293.34080449999999
20
-147.17560500000101
10
293.34080449999999
20
-135.77760499999999
10
294.64180450000003
20
-134.476605000001
10
306.63980450000003
20
-134.476605000001
10
307.94080449999899
20
-135.77760499999999
10
307.94080449999899
20
-147.17560500000101
0
LWPOLYLINE
5
140
100
AcDbEntity
8
0
100
AcDbPolyline
90
8
70
1
43
0.0
10
306.63980450000003
20
-48.46410500000011
10
294.64180450000003
20
-48.46410500000011
10
293.34080449999999
20
-47.163105000000698
10
293.34080449999999
20
-35.765105000001299
10
294.64180450000003
20
-34.464105000000004
10
306.63980450000003
20
-34.464105000000004
10
307.94080449999899
20
-35.765105000001299
10
307.94080449999899
20
-47.163105000000698
0
LWPOLYLINE
5
141
100
AcDbEntity
8
0
100
AcDbPolyline
90
8
70
1
43
0.0
10
75.566804499999293
20
-96.376605000000396
10
87.564804500000704
20
-96.376605000000396
10
88.865804500000095
20
-97.677604999999915
10
88.865804500000095
20
-109.07560500000102
10
87.564804500000704
20
-110.37660500000001
10
75.566804499999293
20
-110.37660500000001
10
74.265804499999803
20
-109.07560500000102
10
74.265804499999803
20
-97.677604999999915
0
LWPOLYLINE
5
142
100
AcDbEntity
8
0
100
AcDbPolyline
90
8
70
1
43
0.0
10
126.9658045
20
-97.677604999999915
10
126.965804500001
20
-109.07560500000102
10
125.66480449999901
20
-110.37660500000001
10
113.66680450000001
20
-110.37660500000001
10
112.3658045
20
-109.07560500000102
10
112.3658045
20
-97.677604999999915
10
113.66680450000001
20
-96.376605000000396
10
125.66480449999901
20
-96.376605000000396
0
LWPOLYLINE
5
143
100
AcDbEntity
8
0
100
AcDbPolyline
90
8
70
1
43
0.0
10
278.06480449999901
20
-148.476605000001
10
266.06680449999902
20
-148.476605000001
10
264.7658045
20
-147.17560500000101
10
264.7658045
20
-135.77760499999999
10
266.06680449999902
20
-134.476605000001
10
278.06480449999901
20
-134.476605000001
10
279.36580450000002
20
-135.77760499999999
10
279.36580450000002
20
-147.17560500000101
0
LWPOLYLINE
5
144
100
AcDbEntity
8
0
100
AcDbPolyline
90
8
70
1
43
0.0
10
294.64180450000003
20
-111.67660500000201
10
294.64180450000003
20
-95.076605000001109
42
-0.41421356237309503
10
295.39180449999998
20
-94.326605000001109
10
343.98980450000005
20
-94.326605000001081
42
-0.41421356237309503
10
344.73980450000005
20
-95.076605000001109
10
344.73980449999999
20
-111.67660500000201
42
-0.41421356237309503
10
343.98980450000005
20
-112.426605000002
10
295.39180449999998
20
-112.426605000002
42
-0.41421356237309503
0
LWPOLYLINE
5
145
100
AcDbEntity
8
0
100
AcDbPolyline
90
8
70
1
43
0.0
10
183.8033045
20
-90.0256049999998
10
183.8033045
20
-78.627605000000614
10
185.10430450000001
20
-77.326605000001095
10
197.10230449999901
20
-77.326605000001095
10
198.40330449999999
20
-78.627605000000614
10
198.40330449999999
20
-90.0256049999998
10
197.10230449999901
20
-91.326605000001109
10
185.10430450000001
20
-91.326605000001109
0
LWPOLYLINE
5
146
100
AcDbEntity
8
0
100
AcDbPolyline
90
8
70
1
43
0.0
10
122.2033045
20
-78.627605000000614
10
122.2033045
20
-90.0256049999998
10
120.9023045
20
-91.326605000001109
10
108.90430450000102
20
-91.326605000001109
10
107.603304499999
20
-90.0256049999998
10
107.603304499999
20
-78.627605000000614
10
108.90430450000102
20
-77.326605000001095
10
120.9023045
20
-77.326605000001095
0
LWPOLYLINE
5
147
100
AcDbEntity
8
0
100
AcDbPolyline
90
8
70
1
43
0.0
10
103.15330450000002
20
-78.627605000000614
10
103.15330450000002
20
-90.0256049999998
10
101.85230449999899
20
-91.326605000001109
10
89.8543044999996
20
-91.326605000001109
10
88.553304500000095
20
-90.0256049999998
10
88.553304500000095
20
-78.627605000000614
10
89.8543044999996
20
-77.326605000001095
10
101.85230449999899
20
-77.326605000001095
0
LWPOLYLINE
5
148
100
AcDbEntity
8
0
100
AcDbPolyline
90
8
70
1
43
0.0
10
294.64180450000003
20
-58.276605000000004
10
306.63980450000003
20
-58.276605000000004
10
307.94080449999899
20
-59.577605000001306
10
307.94080449999899
20
-70.975605000000598
10
306.63980450000003
20
-72.276605000000103
10
294.64180450000003
20
-72.276605000000103
10
293.34080449999999
20
-70.975605000000598
10
293.34080449999999
20
-59.577605000001306
0
LWPOLYLINE
5
149
100
AcDbEntity
8
0
100
AcDbPolyline
90
8
70
1
43
0.0
10
179.35430450000001
20
-35.765105000001299
10
179.35430450000001
20
-47.163105000000698
10
178.053304499999
20
-48.46410500000011
10
166.05530450000001
20
-48.464105000000011
10
164.75430450000002
20
-47.163105000000598
10
164.75430450000002
20
-35.765105000001199
10
166.05530450000001
20
-34.464105000000004
10
178.053304499999
20
-34.464105000000004
0
LWPOLYLINE
5
150
100
AcDbEntity
8
0
100
AcDbPolyline
90
8
70
1
43
0.0
10
55.215804500000509
20
-109.07560500000102
10
55.215804500000509
20
-97.677604999999915
10
56.516804500000006
20
-96.376605000000396
10
68.514804499999599
20
-96.376605000000396
10
69.815804499999004
20
-97.677604999999915
10
69.815804499999004
20
-109.07560500000102
10
68.514804499999698
20
-110.37660500000001
10
56.516804500000006
20
-110.37660500000001
0
LWPOLYLINE
5
151
100
AcDbEntity
8
0
100
AcDbPolyline
90
8
70
1
43
0.0
10
50.765804499999803
20
-97.677604999999915
10
50.765804499999803
20
-109.07560500000102
10
49.464804500000305
20
-110.37660500000001
10
37.466804499998901
20
-110.37660500000001
10
36.165804499999403
20
-109.07560500000102
10
36.165804499999403
20
-97.677604999999915
10
37.466804499998901
20
-96.376605000000396
10
49.464804500000305
20
-96.376605000000396
0
LWPOLYLINE
5
152
100
AcDbEntity
8
0
100
AcDbPolyline
90
8
70
1
43
0.0
10
206.627304500001
20
-58.276605000000004
10
207.9283045
20
-59.577605000001306
10
207.9283045
20
-70.975605000000598
10
206.627304500001
20
-72.276605000000004
10
194.62930449999902
20
-72.276605000000004
10
193.32830450000003
20
-70.975605000000598
10
193.32830450000003
20
-59.577605000001306
10
194.62930449999902
20
-58.276605000000004
0
CIRCLE
5
153
100
AcDbEntity
8
0
100
AcDbCircle
10
212.43430500000002
20
-28.470604999999903
30
0
40
1.49999999999999
210
0
220
0
230
1
0
LWPOLYLINE
5
154
100
AcDbEntity
8
0
100
AcDbPolyline
90
8
70
1
43
0.0
10
188.56730449999901
20
-47.163105000000698
10
188.56730449999901
20
-35.765105000001299
10
189.86830449999999
20
-34.464105000000004
10
201.86630450000001
20
-34.464105000000004
10
203.16730449999903
20
-35.765105000001299
10
203.16730449999903
20
-47.163105000000698
10
201.86630450000001
20
-48.46410500000011
10
189.86830449999999
20
-48.46410500000011
0
LWPOLYLINE
5
155
100
AcDbEntity
8
0
100
AcDbPolyline
90
8
70
1
43
0.0
10
65.053304500000095
20
-78.627605000000614
10
65.053304500000095
20
-90.0256049999998
10
63.752304500000704
20
-91.326605000001109
10
51.7543044999993
20
-91.326605000001109
10
50.453304499999803
20
-90.0256049999998
10
50.453304499999803
20
-78.627605000000614
10
51.7543044999993
20
-77.326605000001095
10
63.752304500000704
20
-77.326605000001095
0
LWPOLYLINE
5
156
100
AcDbEntity
8
0
100
AcDbPolyline
90
8
70
1
43
0.0
10
174.27830449999999
20
-70.975605000000598
10
174.27830449999999
20
-59.577605000001306
10
175.57930450000001
20
-58.276605000000004
10
187.5773045
20
-58.276605000000004
10
188.87830449999899
20
-59.577605000001306
10
188.87830449999899
20
-70.975605000000598
10
187.5773045
20
-72.276605000000004
10
175.57930450000001
20
-72.276605000000004
0
LWPOLYLINE
5
157
100
AcDbEntity
8
0
100
AcDbPolyline
90
8
70
1
43
0.0
10
270.83130449999999
20
-48.46410500000011
10
269.53030450000102
20
-47.163105000000698
10
269.53030450000102
20
-35.765105000001299
10
270.83130449999999
20
-34.464105000000004
10
282.82930449999901
20
-34.464105000000004
10
284.130304499999
20
-35.765105000001299
10
284.130304499999
20
-47.163105000000698
10
282.82930449999901
20
-48.46410500000011
0
LWPOLYLINE
5
158
100
AcDbEntity
8
0
100
AcDbPolyline
90
8
70
1
43
0.0
10
22.190804499999103
20
-78.627605000000614
10
22.190804499999103
20
-90.0256049999998
10
20.889804499999599
20
-91.326605000001109
10
8.8918044999999797
20
-91.326605000001109
10
7.5908045000005604
20
-90.0256049999998
10
7.5908045000005604
20
-78.627605000000614
10
8.8918044999999797
20
-77.326605000001095
10
20.889804499999599
20
-77.326605000001095
0
CIRCLE
5
159
100
AcDbEntity
8
0
100
AcDbCircle
10
274.43430499999999
20
-154.47010499999999
30
0
40
1.5000000000000202
210
0
220
0
230
1
0
LWPOLYLINE
5
160
100
AcDbEntity
8
0
100
AcDbPolyline
90
8
70
1
43
0.0
10
66.0418044999996
20
-115.42660500000201
10
78.039804499999207
20
-115.42660500000201
10
79.340804500000502
20
-116.72760500000102
10
79.340804500000502
20
-128.12560500000001
10
78.039804499999306
20
-129.42660500000201
10
66.0418044999996
20
-129.42660500000201
10
64.740804500000095
20
-128.12560500000001
10
64.740804500000095
20
-116.72760500000102
0
LWPOLYLINE
5
161
100
AcDbEntity
8
0
100
AcDbPolyline
90
8
70
1
43
0.0
10
46.003304499999103
20
-90.0256049999998
10
44.702304499999599
20
-91.326605000001109
10
32.704304499999999
20
-91.326605000001109
10
31.403304500000502
20
-90.0256049999998
10
31.403304500000502
20
-78.627605000000614
10
32.704304499999999
20
-77.326605000001095
10
44.702304499999599
20
-77.326605000001095
10
46.003304499999103
20
-78.627605000000614
0
LWPOLYLINE
5
162
100
AcDbEntity
8
0
100
AcDbPolyline
90
8
70
1
43
0.0
10
325.68980450000106
20
-115.42660500000201
10
326.99080450000002
20
-116.72760500000102
10
326.99080450000002
20
-128.12560500000001
10
325.68980450000106
20
-129.42660500000201
10
313.69180449999902
20
-129.42660500000201
10
312.39080450000006
20
-128.12560500000001
10
312.39080450000006
20
-116.72760500000102
10
313.69180449999902
20
-115.42660500000201
0
CIRCLE
5
163
100
AcDbEntity
8
0
100
AcDbCircle
10
143.43418178004299
20
-154.47010499999999
30
0
40
1.5000000000000002
210
0
220
0
230
1
0
LWPOLYLINE
5
164
100
AcDbEntity
8
0
100
AcDbPolyline
90
8
70
1
43
0.0
10
22.190804499999103
20
-135.77760499999999
10
22.190804499999103
20
-147.17560500000101
10
20.889804499999499
20
-148.476605000001
10
8.8918044999999424
20
-148.476605000001
10
7.5908045000005213
20
-147.17560500000101
10
7.5908045000005213
20
-135.77760499999999
10
8.8918044999999406
20
-134.476605000001
10
20.889804499999499
20
-134.476605000001
0
LWPOLYLINE
5
165
100
AcDbEntity
8
0
100
AcDbPolyline
90
8
70
1
43
0.0
10
126.65430450000001
20
-35.765105000001199
10
127.95530449999902
20
-34.464105000000004
10
139.953304500001
20
-34.464105000000004
10
141.25430449999999
20
-35.765105000001199
10
141.25430449999999
20
-47.163105000000598
10
139.953304500001
20
-48.464105000000011
10
127.95530449999902
20
-48.464105000000011
10
126.65430450000001
20
-47.163105000000598
0
LWPOLYLINE
5
166
100
AcDbEntity
8
0
100
AcDbPolyline
90
8
70
1
43
0.0
10
26.641304500000199
20
-35.765105000001199
10
27.942304499999704
20
-34.464105000000004
10
39.9403044999993
20
-34.464105000000004
10
41.24130450000051
20
-35.765105000001199
10
41.24130450000051
20
-47.163105000000598
10
39.940304499999201
20
-48.464105000000011
10
27.942304499999704
20
-48.464105000000011
10
26.641304500000199
20
-47.163105000000598
0
LWPOLYLINE
5
167
100
AcDbEntity
8
0
100
AcDbPolyline
90
8
70
1
43
0.0
10
111.377304500001
20
-58.276605000000004
10
112.6783045
20
-59.577605000001306
10
112.6783045
20
-70.975605000000598
10
111.377304500001
20
-72.276605000000004
10
99.379304499999307
20
-72.276605000000004
10
98.078304499999817
20
-70.975605000000598
10
98.078304499999817
20
-59.577605000001306
10
99.379304499999307
20
-58.276605000000004
0
LWPOLYLINE
5
168
100
AcDbEntity
8
0
100
AcDbPolyline
90
8
70
1
43
0.0
10
32.16929149999909
20
-101.27659800000102
42
0.41421561263633899
10
31.169294500037601
20
-100.276608000026
10
29.569301500000602
20
-100.27660800000079
42
0.41421854158989346
10
28.5693014999732
20
-101.27660499990901
10
28.569301500000602
20
-105.476598
42
0.41421737002550951
10
29.569294499990004
20
-106.47659800004402
10
31.169301499999101
20
-106.47659800004993
42
0.41421444105563104
10
32.169294500000397
20
-105.476605000012
0
LWPOLYLINE
5
169
100
AcDbEntity
8
0
100
AcDbPolyline
90
8
70
1
43
0.0
10
85.092304499999315
20
-34.464105000000004
10
97.090304500000798
20
-34.464105000000004
10
98.391304500000118
20
-35.765105000001199
10
98.391304500000118
20
-47.163105000000598
10
97.090304500000798
20
-48.464105000000011
10
85.092304499999315
20
-48.464105000000011
10
83.791304499999796
20
-47.163105000000598
10
83.791304499999796
20
-35.765105000001199
0
LWPOLYLINE
5
170
100
AcDbEntity
8
0
100
AcDbPolyline
90
8
70
1
43
0.0
10
31.403304500000701
20
-147.17560499999999
10
31.403304500000701
20
-135.777604999999
10
32.704304500000198
20
-134.47660500000001
10
44.702304499999805
20
-134.47660500000001
10
46.003304499999203
20
-135.777604999999
10
46.003304499999203
20
-147.17560499999999
10
44.702304499999805
20
-148.47660500000001
10
32.704304500000198
20
-148.47660500000001
0
LWPOLYLINE
5
171
100
AcDbEntity
8
0
100
AcDbPolyline
90
8
70
1
43
0.0
10
24.5720544999994
20
-109.07560500000102
10
23.271054500000005
20
-110.37660500000001
10
6.5105545000003717
20
-110.37660500000001
10
5.2095544999990704
20
-109.07560500000102
10
5.2095544999990704
20
-97.677604999999915
10
6.5105545000003708
20
-96.376605000000396
10
23.271054500000005
20
-96.376605000000396
10
24.5720544999994
20
-97.677604999999915
0
LWPOLYLINE
5
172
100
AcDbEntity
8
0
100
AcDbPolyline
90
8
70
1
43
0.0
10
107.60430450000101
20
-35.765105000001199
10
108.9053045
20
-34.464105000000004
10
120.90330450000002
20
-34.464105000000004
10
122.20430449999901
20
-35.765105000001199
10
122.20430449999901
20
-47.163105000000598
10
120.90330450000002
20
-48.464105000000011
10
108.9053045
20
-48.464105000000011
10
107.60430450000101
20
-47.163105000000598
0
LWPOLYLINE
5
173
100
AcDbEntity
8
0
100
AcDbPolyline
90
8
70
1
43
0.0
10
58.990304500000299
20
-48.464105000000011
10
46.992304500000699
20
-48.464105000000011
10
45.691304499999397
20
-47.163105000000598
10
45.691304499999397
20
-35.765105000001199
10
46.992304500000699
20
-34.464105000000004
10
58.990304500000299
20
-34.464105000000004
10
60.291304499999796
20
-35.765105000001199
10
60.291304499999796
20
-47.163105000000598
0
LWPOLYLINE
5
174
100
AcDbEntity
8
0
100
AcDbPolyline
90
8
70
1
43
0.0
10
79.341304499999097
20
-35.765105000001199
10
79.341304499999097
20
-47.163105000000598
10
78.040304499999607
20
-48.464105000000011
10
66.0423045
20
-48.464105000000011
10
64.741304500000496
20
-47.163105000000598
10
64.741304500000496
20
-35.765105000001199
10
66.0423045
20
-34.464105000000004
10
78.040304499999607
20
-34.464105000000004
0
LWPOLYLINE
5
175
100
AcDbEntity
8
0
100
AcDbPolyline
90
8
70
1
43
0.0
10
17.428304500000099
20
-47.163105000000598
10
16.127304500000701
20
-48.464105000000011
10
4.1293044999992601
20
-48.464105000000011
10
2.8283044999997702
20
-47.163105000000598
10
2.8283044999997702
20
-35.765105000001199
10
4.1293044999992601
20
-34.464104999999904
10
16.127304500000701
20
-34.464104999999904
10
17.428304500000099
20
-35.765105000001199
0
CIRCLE
5
176
100
AcDbEntity
8
0
100
AcDbCircle
10
16.433805
20
-28.470604999999999
30
0
40
1.5000000000000002
210
0
220
0
230
1
0
LWPOLYLINE
5
177
100
AcDbEntity
8
0
100
AcDbPolyline
90
6
70
1
43
0.0
10
38.034554499999103
20
-127.694605000002
10
35.034554499999103
20
-129.42660500000201
10
9.0345544999990715
20
-129.42660500000201
10
6.0345544999990297
20
-127.694605000002
10
6.0345544999990297
20
-115.42660500000201
10
38.034554499999103
20
-115.42660500000201
0
CIRCLE
5
178
100
AcDbEntity
8
0
100
AcDbCircle
10
16.433804999999801
20
-154.47010499999999
30
0
40
1.5000000000000102
210
0
220
0
230
1
0
LWPOLYLINE
5
179
100
AcDbEntity
8
0
100
AcDbPolyline
90
8
70
1
43
0.0
10
137.47930450000001
20
-134.476605000001
10
149.47730449999904
20
-134.476605000001
10
150.77830449999999
20
-135.77760499999999
10
150.77830450000101
20
-147.17560500000101
10
149.47730449999904
20
-148.476605000001
10
137.47930450000001
20
-148.476605000001
10
136.1783045
20
-147.17560500000101
10
136.1783045
20
-135.77760499999999
0
LWPOLYLINE
5
180
100
AcDbEntity
8
0
100
AcDbPolyline
90
8
70
1
43
0.0
10
149.47730449999904
20
-72.276605000000004
10
137.47930450000001
20
-72.276605000000004
10
136.1783045
20
-70.975605000000598
10
136.1783045
20
-59.577605000001306
10
137.47930450000001
20
-58.276605000000004
10
149.47730449999904
20
-58.276605000000004
10
150.77830450000101
20
-59.577605000001306
10
150.77830450000101
20
-70.975605000000598
0
LWPOLYLINE
5
181
100
AcDbEntity
8
0
100
AcDbPolyline
90
8
70
1
43
0.0
10
46.991804500000399
20
-115.42660500000201
10
58.989804499999899
20
-115.42660500000201
10
60.29080449999941
20
-116.72760500000102
10
60.29080449999941
20
-128.12560500000001
10
58.989804499999899
20
-129.42660500000201
10
46.991804500000399
20
-129.42660500000201
10
45.690804499999103
20
-128.12560500000001
10
45.690804499999103
20
-116.72760500000102
0
LWPOLYLINE
5
182
100
AcDbEntity
8
0
100
AcDbPolyline
90
8
70
1
43
0.0
10
346.04080449999998
20
-70.975605000000598
10
344.73980449999999
20
-72.276605000000103
10
332.74180450000006
20
-72.276605000000103
10
331.44080449999899
20
-70.975605000000598
10
331.44080449999899
20
-59.577605000001306
10
332.74180450000006
20
-58.276605000000004
10
344.73980449999999
20
-58.276605000000004
10
346.04080449999998
20
-59.577605000001306
0
LWPOLYLINE
5
183
100
AcDbEntity
8
0
100
AcDbPolyline
90
8
70
1
43
0.0
10
332.74180450000006
20
-34.464105000000004
10
344.73980449999999
20
-34.464105000000004
10
346.04080449999998
20
-35.765105000001299
10
346.04080449999998
20
-47.163105000000698
10
344.73980449999999
20
-48.46410500000011
10
332.74180450000006
20
-48.46410500000011
10
331.44080449999899
20
-47.163105000000698
10
331.44080449999899
20
-35.765105000001299
0
LWPOLYLINE
5
184
100
AcDbEntity
8
0
100
AcDbPolyline
90
8
70
1
43
0.0
10
83.790804499999396
20
-128.12560500000001
10
83.790804499999396
20
-116.72760500000102
10
85.09180450000072
20
-115.42660500000201
10
97.089804500000298
20
-115.42660500000201
10
98.390804499999817
20
-116.72760500000102
10
98.390804499999817
20
-128.12560500000001
10
97.089804500000298
20
-129.42660500000201
10
85.09180450000072
20
-129.42660500000201
0
LWPOLYLINE
5
185
100
AcDbEntity
8
0
100
AcDbPolyline
90
8
70
1
43
0.0
10
131.72830449999901
20
-70.975605000000598
10
130.42730449999999
20
-72.276605000000004
10
118.4293045
20
-72.276605000000004
10
117.128304499999
20
-70.975605000000598
10
117.128304499999
20
-59.577605000001306
10
118.4293045
20
-58.276605000000004
10
130.42730449999999
20
-58.276605000000004
10
131.72830449999901
20
-59.577605000001306
0
LWPOLYLINE
5
186
100
AcDbEntity
8
0
100
AcDbPolyline
90
8
70
1
43
0.0
10
325.68980450000106
20
-58.276605000000004
10
326.99080450000002
20
-59.577605000001306
10
326.99080450000002
20
-70.975605000000598
10
325.68980450000106
20
-72.276605000000103
10
313.69180449999902
20
-72.276605000000103
10
312.39080450000006
20
-70.975605000000598
10
312.39080450000006
20
-59.577605000001306
10
313.69180449999902
20
-58.276605000000004
0
CIRCLE
5
187
100
AcDbEntity
8
0
100
AcDbCircle
10
274.43430499999999
20
-28.470604999999999
30
0
40
1.49999999999999
210
0
220
0
230
1
0
LWPOLYLINE
5
188
100
AcDbEntity
8
0
100
AcDbPolyline
90
8
70
1
43
0.0
10
102.84080450000002
20
-128.12560500000001
10
102.84080450000002
20
-116.72760500000102
10
104.14180450000002
20
-115.42660500000201
10
116.1398045
20
-115.42660500000201
10
117.440804499999
20
-116.72760500000102
10
117.440804499999
20
-128.12560500000001
10
116.1398045
20
-129.42660500000201
10
104.14180450000002
20
-129.42660500000201
0
LWPOLYLINE
5
189
100
AcDbEntity
8
0
100
AcDbPolyline
90
8
70
1
43
0.0
10
106.61480450000001
20
-96.376605000000396
10
107.915804499999
20
-97.677604999999915
10
107.915804499999
20
-109.07560500000102
10
106.61480450000001
20
-110.37660500000001
10
94.616804500000299
20
-110.37660500000001
10
93.315804499999018
20
-109.07560500000102
10
93.315804499999018
20
-97.677604999999915
10
94.616804500000299
20
-96.376605000000396
0
LWPOLYLINE
5
190
100
AcDbEntity
8
0
100
AcDbPolyline
90
8
70
1
43
0.0
10
326.99080450000002
20
-135.77760499999999
10
326.99080450000002
20
-147.17560500000101
10
325.68980450000106
20
-148.476605000001
10
313.69180449999902
20
-148.476605000001
10
312.39080450000006
20
-147.17560500000101
10
312.39080450000006
20
-135.77760499999999
10
313.69180449999902
20
-134.476605000001
10
325.68980450000106
20
-134.476605000001
0
LWPOLYLINE
5
191
100
AcDbEntity
8
0
100
AcDbPolyline
90
8
70
1
43
0.0
10
69.815804499999004
20
-147.17560500000101
10
68.514804499999698
20
-148.476605000001
10
56.516804500000006
20
-148.476605000001
10
55.215804500000509
20
-147.17560500000101
10
55.215804500000509
20
-135.77760499999999
10
56.516804500000006
20
-134.476605000001
10
68.514804499999599
20
-134.476605000001
10
69.815804499999004
20
-135.77760499999999
0
LWPOLYLINE
5
192
100
AcDbEntity
8
0
100
AcDbPolyline
90
8
70
1
43
0.0
10
61.279304500000706
20
-72.276605000000004
10
59.97830449999941
20
-70.975605000000598
10
59.97830449999941
20
-59.577605000001306
10
61.279304500000706
20
-58.276605000000004
10
73.277304500000298
20
-58.276605000000004
10
74.578304499999803
20
-59.577605000001306
10
74.578304499999803
20
-70.975605000000598
10
73.277304500000298
20
-72.276605000000004
0
LWPOLYLINE
5
193
100
AcDbEntity
8
0
100
AcDbPolyline
90
8
70
1
43
0.0
10
312.39080450000006
20
-35.765105000001299
10
313.69180449999902
20
-34.464105000000004
10
325.68980450000106
20
-34.464105000000004
10
326.99080450000002
20
-35.765105000001299
10
326.99080450000002
20
-47.163105000000698
10
325.68980450000106
20
-48.46410500000011
10
313.69180449999902
20
-48.46410500000011
10
312.39080450000006
20
-47.163105000000698
0
LWPOLYLINE
5
194
100
AcDbEntity
8
0
100
AcDbPolyline
90
8
70
1
43
0.0
10
331.44080449999899
20
-147.17560500000101
10
331.44080449999899
20
-135.77760499999999
10
332.74180450000006
20
-134.476605000001
10
344.73980449999999
20
-134.476605000001
10
346.04080449999998
20
-135.77760499999999
10
346.04080449999998
20
-147.17560500000101
10
344.73980449999999
20
-148.476605000001
10
332.74180450000006
20
-148.476605000001
0
LWPOLYLINE
5
195
100
AcDbEntity
8
0
100
AcDbPolyline
90
8
70
1
43
0.0
10
42.2293044999996
20
-58.276605000000004
10
54.227304499999207
20
-58.276605000000004
10
55.528304500000509
20
-59.577605000001306
10
55.528304500000509
20
-70.975605000000598
10
54.227304499999207
20
-72.276605000000004
10
42.2293044999996
20
-72.276605000000004
10
40.92830450000011
20
-70.975605000000598
10
40.928304500000209
20
-59.577605000001306
0
CIRCLE
5
196
100
AcDbEntity
8
0
100
AcDbCircle
10
332.43430478004399
20
-154.47010499999999
30
0
40
1.49999999999999
210
0
220
0
230
1
0
LWPOLYLINE
5
197
100
AcDbEntity
8
0
100
AcDbPolyline
90
8
70
1
43
0.0
10
147.00530449999999
20
-34.464105000000004
10
159.00330450000001
20
-34.464105000000004
10
160.30430449999901
20
-35.765105000001199
10
160.30430449999901
20
-47.163105000000598
10
159.00330450000001
20
-48.464105000000011
10
147.00530449999999
20
-48.464105000000011
10
145.70430449999901
20
-47.163105000000598
10
145.70430449999901
20
-35.765105000001199
0
CIRCLE
5
198
100
AcDbEntity
8
0
100
AcDbCircle
10
74.433805000000007
20
-154.47010499999999
30
0
40
1.5000000000000002
210
0
220
0
230
1
0
LWPOLYLINE
5
199
100
AcDbEntity
8
0
100
AcDbPolyline
90
8
70
1
43
0.0
10
23.179304500000303
20
-58.276605000000004
10
35.177304499999899
20
-58.276605000000004
10
36.478304499999403
20
-59.577605000001306
10
36.478304499999403
20
-70.975605000000598
10
35.177304499999899
20
-72.276605000000004
10
23.179304500000303
20
-72.276605000000004
10
21.878304499999103
20
-70.975605000000598
10
21.878304499999103
20
-59.577605000001306
0
CIRCLE
5
200
100
AcDbEntity
8
0
100
AcDbCircle
10
136.434181719956
20
-28.470604999999903
30
0
40
1.5000000000000002
210
0
220
0
230
1
0
CIRCLE
5
201
100
AcDbEntity
8
0
100
AcDbCircle
10
332.434304719956
20
-28.470604999999999
30
0
40
1.49999999999999
210
0
220
0
230
1
0
LWPOLYLINE
5
202
100
AcDbEntity
8
0
100
AcDbPolyline
90
8
70
1
43
0.0
10
2.8283044999997404
20
-59.577605000001306
10
4.1293044999992299
20
-58.276605000000004
10
16.127304500000701
20
-58.276605000000004
10
17.428304500000099
20
-59.577605000001306
10
17.428304500000099
20
-70.975605000000598
10
16.127304500000701
20
-72.276605000000004
10
4.129304499999229
20
-72.276605000000004
10
2.8283044999997702
20
-70.975605000000598
0
CIRCLE
5
203
100
AcDbEntity
8
0
100
AcDbCircle
10
74.433804719957294
20
-28.470604999999999
30
0
40
1.49999999999999
210
0
220
0
230
1
0
CIRCLE
5
204
100
AcDbEntity
8
0
100
AcDbCircle
10
181.57833650000001
20
-41.46410499999994
30
0
40
1.3999999999999999
210
0
220
-0
230
1
0
CIRCLE
5
205
100
AcDbEntity
8
0
100
AcDbCircle
10
267.30471249999999
20
-41.464129000000007
30
0
40
1.3999999999999999
210
0
220
-0
230
1
0
CIRCLE
5
206
100
AcDbEntity
8
0
100
AcDbCircle
10
283.70461850000004
20
-72.475644999999957
30
0
40
1.3999999999999999
210
0
220
-0
230
1
0
CIRCLE
5
207
100
AcDbEntity
8
0
100
AcDbCircle
10
153.00404049999997
20
-65.27670099999996
30
0
40
1.3999999999999999
210
0
220
-0
230
1
0
CIRCLE
5
208
100
AcDbEntity
8
0
100
AcDbCircle
10
238.72954449999997
20
-84.32674899999995
30
0
40
1.3999999999999999
210
0
220
-0
230
1
0
CIRCLE
5
209
100
AcDbEntity
8
0
100
AcDbCircle
10
124.42898449999998
20
-41.46412899999995
30
0
40
1.3999999999999999
210
0
220
-0
230
1
0
CIRCLE
5
210
100
AcDbEntity
8
0
100
AcDbCircle
10
233.96701750000003
20
-122.42684499999996
30
0
40
1.3999999999999999
210
0
220
-0
230
1
0
CIRCLE
5
211
100
AcDbEntity
8
0
100
AcDbCircle
10
181.57932049999999
20
-84.32674899999995
30
0
40
1.3999999999999999
210
0
220
-0
230
1
0
CIRCLE
5
212
100
AcDbEntity
8
0
100
AcDbCircle
10
229.20448850000002
20
-65.27670099999996
30
0
40
1.3999999999999999
210
0
220
-0
230
1
0
CIRCLE
5
213
100
AcDbEntity
8
0
100
AcDbCircle
10
243.49207250000001
20
-103.37679699999995
30
0
40
1.3999999999999999
210
0
220
-0
230
1
0
CIRCLE
5
214
100
AcDbEntity
8
0
100
AcDbCircle
10
195.8667925
20
-122.42684499999996
30
0
40
1.3999999999999999
210
0
220
-0
230
1
0
CIRCLE
5
215
100
AcDbEntity
8
0
100
AcDbCircle
10
105.37876049999997
20
-84.32674899999995
30
0
40
1.3999999999999999
210
0
220
-0
230
1
0
CIRCLE
5
216
100
AcDbEntity
8
0
100
AcDbCircle
10
157.76656849999998
20
-141.47689299999996
30
0
40
1.3999999999999999
210
0
220
-0
230
1
0
CIRCLE
5
217
100
AcDbEntity
8
0
100
AcDbCircle
10
236.34828049999999
20
-141.47689399999996
30
0
40
1.3999999999999999
210
0
220
-0
230
1
0
CIRCLE
5
218
100
AcDbEntity
8
0
100
AcDbCircle
10
157.76668049999998
20
-122.42684499999996
30
0
40
1.3999999999999999
210
0
220
-0
230
1
0
CIRCLE
5
219
100
AcDbEntity
8
0
100
AcDbCircle
10
281.32336850000002
20
-110.57564499999997
30
0
40
1.3999999999999999
210
0
220
-0
230
1
0
CIRCLE
5
220
100
AcDbEntity
8
0
100
AcDbCircle
10
338.74266049999994
20
-122.42684499999996
30
0
40
1.3999999999999999
210
0
220
-0
230
1
0
CIRCLE
5
221
100
AcDbEntity
8
0
100
AcDbCircle
10
148.24151249999997
20
-103.37679599999996
30
0
40
1.3999999999999999
210
0
220
-0
230
1
0
CIRCLE
5
222
100
AcDbEntity
8
0
100
AcDbCircle
10
329.21760449999994
20
-141.47689299999996
30
0
40
1.3999999999999999
210
0
220
-0
230
1
0
CIRCLE
5
223
100
AcDbEntity
8
0
100
AcDbCircle
10
287.4675135
20
-141.47564499999993
30
0
40
1.3999999999999999
210
0
220
-0
230
1
0
CIRCLE
5
224
100
AcDbEntity
8
0
100
AcDbCircle
10
122.04760849999998
20
-141.47689299999996
30
0
40
1.3999999999999999
210
0
220
-0
230
1
0
CIRCLE
5
225
100
AcDbEntity
8
0
100
AcDbCircle
10
100.61686049999999
20
-122.42564499999997
30
0
40
1.3999999999999999
210
0
220
-0
230
1
0
CIRCLE
5
226
100
AcDbEntity
8
0
100
AcDbCircle
10
205.39184850000001
20
-103.37679599999996
30
0
40
1.3999999999999999
210
0
220
-0
230
1
0
CIRCLE
5
227
100
AcDbEntity
8
0
100
AcDbCircle
10
52.990952499999992
20
-103.37679599999996
30
0
40
1.3999999999999999
210
0
220
-0
230
1
0
CIRCLE
5
228
100
AcDbEntity
8
0
100
AcDbCircle
10
329.21760449999994
20
-84.32674899999995
30
0
40
1.3999999999999999
210
0
220
-0
230
1
0
CIRCLE
5
229
100
AcDbEntity
8
0
100
AcDbCircle
10
43.465832499999983
20
-122.42667299999997
30
0
40
1.3999999999999999
210
0
220
-0
230
1
0
CIRCLE
5
230
100
AcDbEntity
8
0
100
AcDbCircle
10
329.2168605
20
-41.463145000000011
30
0
40
1.3999999999999999
210
0
220
-0
230
1
0
CIRCLE
5
231
100
AcDbEntity
8
0
100
AcDbCircle
10
76.803592499999979
20
-141.47689299999996
30
0
40
1.3999999999999999
210
0
220
-0
230
1
0
CIRCLE
5
232
100
AcDbEntity
8
0
100
AcDbCircle
10
50.609688499999983
20
-141.47689399999996
30
0
40
1.3999999999999999
210
0
220
-0
230
1
0
CIRCLE
5
233
100
AcDbEntity
8
0
100
AcDbCircle
10
2.9844084999999798
20
-103.37679699999995
30
0
40
1.3999999999999999
210
0
220
-0
230
1
0
CIRCLE
5
234
100
AcDbEntity
8
0
100
AcDbCircle
10
26.797048499999985
20
-84.32674899999995
30
0
40
1.3999999999999999
210
0
220
-0
230
1
0
CIRCLE
5
235
100
AcDbEntity
8
0
100
AcDbCircle
10
310.16749250000004
20
-65.276701999999958
30
0
40
1.3999999999999999
210
0
220
-0
230
1
0
CIRCLE
5
236
100
AcDbEntity
8
0
100
AcDbCircle
10
22.034554499999981
20
-41.464104999999954
30
0
40
1.3999999999999999
210
0
220
-0
230
1
0
CIRCLE
5
237
100
AcDbEntity
8
0
100
AcDbCircle
10
19.653256499999983
20
-65.27670099999996
30
0
40
1.3999999999999999
210
0
220
-0
230
1
0
CIRCLE
5
238
100
AcDbEntity
8
0
100
AcDbCircle
10
76.803592499999979
20
-65.27670099999996
30
0
40
1.3999999999999999
210
0
220
-0
230
1
0
CIRCLE
5
239
100
AcDbEntity
8
0
100
AcDbCircle
10
5.6358684999999813
20
-129.62564499999996
30
0
40
1.3999999999999999
210
0
220
-0
230
1
0
CIRCLE
5
240
100
AcDbEntity
8
0
100
AcDbCircle
10
248.5233685
20
-110.57564499999997
30
0
40
1.3999999999999999
210
0
220
-0
230
1
0
ENDSEC
0
SECTION
2
OBJECTS
0
DICTIONARY
5
C
100
AcDbDictionary
3
ACAD_GROUP
350
D
3
ACAD_MLINESTYLE
350
17
0
DICTIONARY
5
D
100
AcDbDictionary
0
DICTIONARY
5
1A
330
C
100
AcDbDictionary
0
DICTIONARY
5
17
100
AcDbDictionary
0
ENDSEC
0
EOF
